<svg xmlns="http://www.w3.org/2000/svg" xmlns:xlink="http://www.w3.org/1999/xlink" viewBox="0 0 700 505" xmlns:v="https://vecta.io/nano"><style><![CDATA[.B{fill:#1a232c}.C{fill:#67c2e2}.D{fill:#296997}.E{fill:#d64a4a}.F{fill:#fbfdfc}.G{fill:#edc655}.H{fill:#428dae}]]></style><defs><path id="A" d="M.06 231.92V.929h688.66V231.92z"/><path id="B" d="M548.5 281.18v180.95a1 1 0 1 0 2 0V281.18a1 1 0 1 0-2 0m8.226 0v180.95a1 1 0 1 0 2 0V281.18a1 1 0 1 0-2 0m8.224 0v180.95a1 1 0 1 0 2 0V281.18a1 1 0 1 0-2 0"/><path id="C" d="M577.64 467.22c0 2.586-2.115 4.7-4.701 4.7h-30.424c-2.585 0-4.701-2.114-4.701-4.7v-.392c0-2.584 2.116-4.699 4.701-4.699h30.424c2.586 0 4.701 2.115 4.701 4.699v.392"/><path id="D" d="M577.64 467.22h-1c-.001 1.018-.414 1.938-1.088 2.613s-1.595 1.087-2.613 1.087h-30.424c-1.017 0-1.938-.414-2.613-1.087s-1.087-1.596-1.088-2.613v-.392c.001-1.017.414-1.936 1.088-2.611s1.596-1.087 2.613-1.088h30.424c1.018.001 1.938.414 2.613 1.088a3.68 3.68 0 0 1 1.088 2.611v.392h2v-.392c-.004-3.141-2.558-5.695-5.701-5.699h-30.424c-3.142.004-5.697 2.558-5.701 5.699v.392c.004 3.143 2.559 5.697 5.701 5.7h30.424c3.143-.003 5.697-2.558 5.701-5.7h-1"/><path id="E" d="M402.89 466.24c0 2.586-2.115 4.7-4.701 4.7h-30.425c-2.585 0-4.7-2.114-4.7-4.7v-.393c0-2.584 2.115-4.698 4.7-4.698h30.425c2.586 0 4.701 2.114 4.701 4.698v.393"/><path id="F" d="M311.54 276.28c0 2.154-2.115 3.915-4.699 3.915h-22.455c-2.584 0-4.7-1.761-4.7-3.915s2.116-3.916 4.7-3.916h22.455c2.584 0 4.699 1.761 4.699 3.916"/><path id="G" d="M311.54 457.23c0 2.154-2.115 3.918-4.699 3.918h-22.455c-2.584 0-4.7-1.764-4.7-3.918s2.116-3.916 4.7-3.916h22.455c2.584 0 4.699 1.765 4.699 3.916"/><path id="H" d="M272.28 188.36h4.2v-6.66h-4.2z"/><path id="I" d="M276.48 188.36v-1h-3.197v-4.658h2.197v5.658h1v-1 1h1v-6.658a1.01 1.01 0 0 0-1-1h-4.197c-.263 0-.521.106-.707.292a1.01 1.01 0 0 0-.293.708v6.658a1.01 1.01 0 0 0 1 1h4.197a1.01 1.01 0 0 0 .708-.293c.186-.186.292-.444.292-.707h-1"/><path id="J" d="M297.33 188.36v-1h-3.198v-4.658h2.198v5.658h1v-1 1h1v-6.658a1.01 1.01 0 0 0-.293-.708c-.186-.186-.444-.292-.707-.292h-4.198c-.263 0-.521.106-.707.292a1.01 1.01 0 0 0-.293.708v6.658a1.01 1.01 0 0 0 1 1h4.198a1.01 1.01 0 0 0 1-1h-1"/><path id="K" d="M297.33 188.36h4.19v-6.66h-4.19z"/><path id="L" d="M111.59 257.55h10.32v-17.63h-10.32z"/><path id="M" d="M113.34 242.93v11.358a1 1 0 1 0 2 0V242.93a1 1 0 1 0-2 0"/><path id="N" d="M149.63 257.55v-1h-9.313v-15.625h8.313v16.625h1v-1 1h1v-17.625c0-.263-.106-.521-.292-.707a1.01 1.01 0 0 0-.708-.293h-10.313a1.01 1.01 0 0 0-1 1v17.625a1.01 1.01 0 0 0 1 1h10.313a1.01 1.01 0 0 0 .708-.293c.186-.186.292-.444.292-.707h-1"/><path id="O" d="M231.67 257.55h10.31v-17.63h-10.31z"/><path id="P" d="M241.98 257.55v-1h-9.314v-15.625h8.314v16.625h1v-1 1h1v-17.625a1.01 1.01 0 0 0-1-1h-10.314a1.01 1.01 0 0 0-1 1v17.625a1.01 1.01 0 0 0 1 1h10.314a1.01 1.01 0 0 0 1-1h-1"/><path id="Q" d="M66.601 249.51c0 1.605-2.701 2.917-6 2.917h-5c-3.3 0-6-1.312-6-2.917s2.7-2.916 6-2.916h5c3.299 0 6 1.313 6 2.916"/><path id="R" d="M622.42 363.23v-1H151.25a1.01 1.01 0 0 0-.708.293c-.186.186-.292.444-.292.707v6.961c0 .263.106.521.292.707a1.01 1.01 0 0 0 .708.293h471.17a1.01 1.01 0 0 0 1-1v-6.961a1.01 1.01 0 0 0-1-1v1h-1v5.961H152.25v-4.961h470.17v-1h-1 1"/><path id="S" d="M330.08 464.42h10.35v-98.16h-10.35z"/><path id="T" d="M334.25 370.19v87.333a1 1 0 1 0 2 0V370.19a1 1 0 1 0-2 0"/><path id="U" d="M326.15 366.26h18.09v-6.07h-18.09z"/><path id="V" d="M160.53 366.26h18.08v-6.07h-18.08z"/><path id="W" d="M178.61 366.26v-1h-17.086v-4.068h16.086v5.068h1v-1 1h1v-6.068c0-.264-.107-.521-.293-.707s-.444-.293-.707-.293h-18.086c-.263 0-.521.106-.707.293s-.293.443-.293.707v6.068a1.01 1.01 0 0 0 1 1h18.086a1.01 1.01 0 0 0 1-1h-1"/><path id="X" d="M178.61 470.49v-1h-17.086v-4.069h16.086v5.069h1v-1 1h1v-6.069a1.01 1.01 0 0 0-1-1h-18.086a1.01 1.01 0 0 0-1 1v6.069a1.01 1.01 0 0 0 1 1h18.086a1.01 1.01 0 0 0 1-1h-1"/><path id="Y" d="M218.53 366.26v-1h-17.087v-4.068h16.087v5.068h1v-1 1h1v-6.068c0-.264-.107-.521-.293-.707s-.444-.293-.707-.293h-18.087c-.263 0-.521.106-.707.293s-.293.443-.293.707v6.068a1.01 1.01 0 0 0 1 1h18.087a1.01 1.01 0 0 0 1-1h-1"/><path id="Z" d="M218.53 470.49v-1h-17.087v-4.069h16.087v5.069h1v-1 1h1v-6.069a1.01 1.01 0 0 0-1-1h-18.087a1.01 1.01 0 0 0-1 1v6.069a1.01 1.01 0 0 0 1 1h18.087a1.01 1.01 0 0 0 1-1h-1"/><path id="a" d="M443.05 464.42v-1h-9.353v-96.16h8.353v97.16h1v-1 1h1v-98.16a1.01 1.01 0 0 0-1-1h-10.353a1.01 1.01 0 0 0-1 1v98.16c0 .264.107.521.293.707s.444.293.707.293h10.353c.263 0 .521-.106.707-.293s.293-.443.293-.707h-1"/><path id="b" d="M313.54 410.21h9.519a1 1 0 1 0 0-2h-9.519a1 1 0 1 0 0 2"/><path id="c" d="M273.8 410.21h9.519a1 1 0 1 0 0-2H273.8a1 1 0 1 0 0 2"/><path id="d" d="M253.93 410.21h9.52a1 1 0 1 0 0-2h-9.52a1 1 0 1 0 0 2"/><path id="e" d="M314.13 393.27h8.33V377.8h-8.33z"/><path id="f" d="M322.46 393.27v-1h-7.33v-13.468h6.33v14.468h1v-1 1h1v-15.468a1.01 1.01 0 0 0-1-1h-8.33c-.264 0-.521.107-.707.293s-.293.444-.293.707v15.468a1.01 1.01 0 0 0 .293.707c.186.186.443.293.707.293h8.33a1.01 1.01 0 0 0 1-1h-1"/><path id="g" d="M314.13 386.54h8.33a1 1 0 1 0 0-2h-8.33a1 1 0 1 0 0 2"/><path id="h" d="M302.59 393.27v-1h-7.329v-13.468h6.329v14.468h1v-1 1h1v-15.468a1.01 1.01 0 0 0-1-1h-8.329c-.264 0-.521.107-.707.293s-.293.444-.293.707v15.468c0 .263.106.521.293.707s.443.293.707.293h8.329a1.01 1.01 0 0 0 1-1h-1"/><path id="i" d="M294.26 386.54h8.329a1 1 0 1 0 0-2h-8.329a1 1 0 1 0 0 2"/><path id="j" d="M282.72 393.27v-1h-7.33v-13.468h6.33v14.468h1v-1 1h1v-15.468a1.01 1.01 0 0 0-1-1h-8.33a1.01 1.01 0 0 0-1 1v15.468a1.01 1.01 0 0 0 1 1h8.33a1.01 1.01 0 0 0 1-1h-1"/><path id="k" d="M242.98 393.27v-1h-7.33v-13.468h6.33v14.468h1v-1 1h1v-15.468c0-.263-.106-.521-.292-.707a1.01 1.01 0 0 0-.708-.293h-8.33a1.01 1.01 0 0 0-1 1v15.468a1.01 1.01 0 0 0 1 1h8.33a1.01 1.01 0 0 0 .708-.293c.186-.186.292-.444.292-.707h-1"/><path id="l" d="M314.13 450.97h8.33v-15.46h-8.33z"/><path id="m" d="M539.41 405.17a4.76 4.76 0 0 0-9.52 0v21.417h9.519l.001-21.417"/><path id="n" d="M470.29 410.21h9.521a1 1 0 1 0 0-2h-9.521a1 1 0 1 0 0 2"/><path id="o" d="M538.82 393.27v-1h-7.329v-13.468h6.329v14.468h1v-1 1h1v-15.468c0-.263-.106-.521-.293-.707s-.443-.293-.707-.293h-8.329a1.01 1.01 0 0 0-1 1v15.468a1.01 1.01 0 0 0 1 1h8.329c.264 0 .521-.107.707-.293s.293-.444.293-.707h-1"/><path id="p" d="M518.95 393.27v-1h-7.33v-13.468h6.33v14.468h1v-1 1h1v-15.468c0-.263-.106-.521-.293-.707s-.443-.293-.707-.293h-8.33a1.01 1.01 0 0 0-1 1v15.468a1.01 1.01 0 0 0 1 1h8.33c.264 0 .521-.107.707-.293s.293-.444.293-.707h-1"/><path id="q" d="M499.08 393.27v-1h-7.329v-13.468h6.329v14.468h1v-1 1h1v-15.468a1.01 1.01 0 0 0-1-1h-8.329a1.01 1.01 0 0 0-1 1v15.468a1.01 1.01 0 0 0 1 1h8.329a1.01 1.01 0 0 0 1-1h-1"/><path id="r" d="M182.25 378.33v14.943a1 1 0 1 0 2 0V378.33a1 1 0 1 0-2 0m12.917 0v14.943a1 1 0 1 0 2 0V378.33a1 1 0 1 0-2 0"/></defs><g fill="none" fill-rule="evenodd"><path d="M125.602 306v-1l-.675.033.052.998.968-.251c-2.206-8.498-9.906-14.778-19.095-14.78-.994 0-1.948.096-2.872.231l.145.989.894-.448c-4.393-8.757-13.452-14.771-23.917-14.772-14.061.002-25.578 10.848-26.659 24.632l.997.078.166-.986c-.803-.135-1.637-.224-2.504-.224-8.285.001-15 6.715-15 15s6.715 14.999 15 15h72.5c7.042-.001 12.749-5.708 12.75-12.75s-5.708-12.749-12.75-12.75v2a10.71 10.71 0 0 1 10.75 10.75 10.71 10.71 0 0 1-10.75 10.75h-72.5c-3.593 0-6.837-1.454-9.193-3.808a12.95 12.95 0 0 1 0-18.384c2.356-2.354 5.6-3.808 9.193-3.808.729 0 1.451.075 2.171.197.278.046.559-.025.782-.198s.359-.429.381-.71c1-12.749 11.658-22.791 24.666-22.789 9.684-.001 18.061 5.564 22.129 13.669a1 1 0 0 0 1.039.541c.862-.126 1.718-.21 2.582-.21 8.256-.002 15.175 5.647 17.159 13.283.119.458.546.771 1.02.747.239-.013.426-.031.571-.03v-1" class="B"/><path d="M646.48 484.38a19.94 19.94 0 0 1-5.857 14.143c-3.905 3.905-9.024 5.857-14.143 5.857H60.87c-5.119 0-10.237-1.952-14.142-5.857s-5.858-9.024-5.858-14.143v-12.465h605.61v12.465" fill="#b5ce6f"/><path d="M334.82 185.03H101.45l4.76 10.05h457.23l4.76-10.05H334.82" class="C"/><path d="M334.82 185.03v-1H101.44c-.345 0-.661.174-.845.465a1 1 0 0 0-.059.963l4.761 10.051a1 1 0 0 0 .903.571h457.23a1 1 0 0 0 .904-.571l4.762-10.051a1 1 0 0 0-.059-.963c-.184-.291-.501-.465-.845-.465h-233.38v2h231.8l-3.814 8.051h-455.96l-3.813-8.051h231.8v-1" class="B"/><path d="M114.42 218.97h445.8v-23.89h-445.8z" class="D"/><path d="M560.22 218.97v-1H115.41v-21.895h443.81v22.895h1v-1 1h1v-23.894a1.01 1.01 0 0 0-1-1H114.41a1.01 1.01 0 0 0-1 1v23.894c0 .263.106.521.292.707a1.01 1.01 0 0 0 .708.293h445.81a1.01 1.01 0 0 0 1-1h-1" class="B"/><path d="M105.85 269.08h467.37V233.4H105.85z" class="C"/><path d="M573.22 233.4v-1H105.84a1.01 1.01 0 0 0-.707.293c-.186.186-.293.443-.293.707v35.682a1.01 1.01 0 0 0 .293.708c.186.186.444.292.707.292h467.38a1.01 1.01 0 0 0 1-1V233.4c0-.264-.107-.521-.293-.707a1.01 1.01 0 0 0-.707-.293v1h-1v34.682H106.84V234.4h466.38v-1h-1 1" class="B"/><path d="M116.75 256.51h445.81v-15.27H116.75z" class="D"/><path d="M562.56 256.51v-1H117.75v-13.265h443.81v14.265h1v-1 1h1v-15.265a1.01 1.01 0 0 0-.293-.708c-.186-.186-.444-.292-.707-.292H116.75a1.01 1.01 0 0 0-.999 1v15.265c0 .263.106.521.292.707a1.01 1.01 0 0 0 .708.293h445.81a1.01 1.01 0 0 0 1-1h-1" class="B"/><path d="M158.07 218.97h360.49v-7.11H158.07z" class="C"/><path d="M518.56 211.86v-1H158.07c-.263 0-.521.106-.707.293s-.293.443-.293.707v7.116a1.01 1.01 0 0 0 1 1h360.49a1.01 1.01 0 0 0 .707-.293c.186-.186.292-.444.292-.707v-7.116c0-.264-.106-.521-.292-.707s-.444-.293-.707-.293v1h-1v6.116H159.07v-5.116h359.49v-1h-1 1" class="B"/><path d="M186.44 211.86h303.75v-7.12H186.44z" class="F"/><path d="M490.19 204.74v-1H186.43a1.01 1.01 0 0 0-1 1v7.117a1.01 1.01 0 0 0 1 1h303.76a1.01 1.01 0 0 0 .708-.293c.186-.186.292-.444.292-.707v-7.117a1.01 1.01 0 0 0-1-1v1h-1v6.117H187.43v-5.117h302.76v-1h-1 1" class="B"/><path d="M206.8 204.74h263.03v-7.12H206.8z" class="C"/><path d="M469.83 197.62v-1H206.81c-.264 0-.521.107-.707.293s-.293.444-.293.707v7.117c0 .264.106.521.293.708s.443.292.707.292h263.02c.263 0 .521-.106.707-.292s.293-.444.293-.708v-7.117c0-.263-.106-.521-.293-.707a1.01 1.01 0 0 0-.707-.293v1h-1v6.117H207.81v-5.117h262.02v-1h-1 1" class="B"/><path d="M229.52 197.62h217.59v-7.11H229.52z" class="F"/><path d="M447.11 190.51v-1H229.52a1.01 1.01 0 0 0-1 1v7.115a1.01 1.01 0 0 0 .293.708c.186.186.444.292.707.292h217.59c.264 0 .521-.106.707-.292s.293-.444.293-.708v-7.115c0-.263-.106-.521-.293-.707s-.443-.293-.707-.293v1h-1v6.115H230.52v-5.115h216.59v-1h-1 1" class="B"/><path d="M135.61 355.45l-1.959-58.06-.644-16.207h-24.282l-.643 16.207-1.96 58.06-.269 16.206v.001c0 14.463 1.393 52.678 2.239 74.535l.633 15.937h24.282l.633-15.937 2.239-74.535v-.001c0-3.921-.103-9.594-.269-16.206" class="C"/><path d="M133.65 297.39h-25.569l.643-16.207h24.282l.644 16.207m2.228 74.267h-30.026v-.001c0-3.921.103-9.594.269-16.206h29.488l.269 16.206v.001m-2.872 90.472h-24.282l-.633-15.937h25.548l-.633 15.937" class="H"/><g class="B"><path d="M109.61 461.2h22.502l2.835-89.546c0-19.233-2.502-81.354-2.835-89.545H109.61l-2.834 89.545c0 19.233 2.501 81.354 2.834 89.546zm24.283 1.855H107.83l-.038-.89-2.872-90.511c0-20.539 2.844-89.814 2.872-90.511l.038-.89h26.063l.036.89 2.873 90.511c0 20.54-2.844 89.813-2.873 90.511l-.036.89z"/><path d="M111.64 281.18v180.95a1 1 0 1 0 2 0V281.18a1 1 0 1 0-2 0m8.225 0v180.95a1 1 0 1 0 2 0V281.18a1 1 0 1 0-2 0m8.225 0v180.95a1 1 0 1 0 2 0V281.18a1 1 0 1 0-2 0"/></g><path d="M136.79 277.26c0 2.153-2.115 3.915-4.7 3.915h-22.454c-2.585 0-4.7-1.762-4.7-3.915s2.115-3.916 4.7-3.916h22.454c2.585 0 4.7 1.762 4.7 3.916" class="D"/><path d="M136.79 277.26h-1c-.001.74-.357 1.439-1.021 1.997-.66.552-1.614.919-2.679.918h-22.454c-1.065.001-2.019-.366-2.68-.918-.663-.558-1.02-1.257-1.02-1.997s.357-1.44 1.021-1.998c.66-.552 1.614-.919 2.679-.918h22.454c1.065-.001 2.019.367 2.679.918.664.558 1.02 1.257 1.021 1.998h2c.001-1.414-.7-2.672-1.741-3.534-1.043-.868-2.439-1.381-3.959-1.382h-22.454c-1.52.001-2.916.514-3.96 1.382-1.04.862-1.741 2.12-1.74 3.534s.7 2.672 1.741 3.533c1.043.868 2.439 1.381 3.959 1.382h22.454c1.52-.001 2.916-.514 3.959-1.382 1.041-.861 1.742-2.12 1.741-3.533h-1" class="B"/><path d="M140.78 467.22c0 2.586-2.114 4.7-4.699 4.7h-30.426c-2.585 0-4.699-2.114-4.699-4.7v-.392c0-2.584 2.114-4.699 4.699-4.699h30.426c2.585 0 4.699 2.115 4.699 4.699v.392" class="D"/><path d="M140.78 467.22h-1c0 1.018-.414 1.938-1.087 2.613s-1.595 1.087-2.612 1.087h-30.426a3.68 3.68 0 0 1-2.612-1.087c-.673-.675-1.087-1.595-1.087-2.613v-.392c0-1.017.414-1.936 1.087-2.611s1.595-1.087 2.612-1.088h30.426c1.017.001 1.937.414 2.612 1.088s1.087 1.594 1.087 2.611v.392h2v-.392c-.003-3.141-2.558-5.695-5.699-5.699h-30.426c-3.141.004-5.695 2.558-5.699 5.699v.392c.003 3.143 2.558 5.697 5.699 5.7h30.426c3.141-.003 5.696-2.557 5.699-5.7h-1" class="B"/><path d="M136.79 458.21c0 2.155-2.115 3.918-4.7 3.918h-22.454c-2.585 0-4.7-1.763-4.7-3.918s2.115-3.916 4.7-3.916h22.454c2.585 0 4.7 1.765 4.7 3.916" class="D"/><path d="M136.79 458.21h-1c-.001.741-.358 1.441-1.021 1.999-.661.553-1.615.921-2.679.919h-22.454c-1.064.002-2.019-.366-2.679-.919s-1.021-1.258-1.021-1.999.357-1.438 1.021-1.996 1.615-.921 2.679-.92h22.454c1.064-.001 2.018.367 2.679.92s1.02 1.258 1.021 1.996h2c.001-1.412-.7-2.67-1.74-3.533s-2.44-1.381-3.96-1.383h-22.454c-1.521.002-2.917.516-3.96 1.383s-1.741 2.121-1.74 3.533.7 2.673 1.74 3.535c1.044.868 2.44 1.382 3.96 1.383h22.454c1.52-.001 2.916-.515 3.96-1.383 1.04-.862 1.741-2.121 1.74-3.535h-1" class="B"/><path d="M572.47 355.45l-1.961-58.06-.643-16.207h-24.282l-.643 16.207-1.961 58.06-.268 16.206v.001c0 14.463 1.394 52.678 2.239 74.535l.633 15.937h24.282l.632-15.937 2.24-74.535v-.001c0-3.921-.102-9.594-.268-16.206" class="C"/><path d="M569.58 297.39h-2.631v-15.279h2.026l.605 15.279m-4.631 0h-19.08l.605-15.279h18.475v15.279m6.849 71.8h-4.849v-12.922h4.611l.238 12.922m-6.849 0h-21.298l.259-13.74h9.639v.818h11.4v12.922" class="H"/><g class="B"><path d="M546.48 461.2h22.501l2.835-89.546c0-19.233-2.502-81.354-2.835-89.545H546.48l-2.834 89.545c0 19.233 2.5 81.354 2.834 89.546m24.282 1.855h-26.064l-.036-.89-2.873-90.511c0-20.539 2.844-89.814 2.873-90.511l.036-.89h26.064l.037.89 2.872 90.511c0 20.54-2.844 89.813-2.872 90.511l-.037.89"/><use xlink:href="#B"/></g><path d="M573.65 277.26c0 2.153-2.116 3.915-4.7 3.915h-22.454c-2.584 0-4.7-1.762-4.7-3.915s2.116-3.916 4.7-3.916h22.454c2.584 0 4.7 1.762 4.7 3.916" class="D"/><path d="M573.65 277.26h-1c0 .74-.357 1.439-1.021 1.997-.66.552-1.615.919-2.679.918h-22.454c-1.064.001-2.019-.366-2.679-.918-.664-.558-1.02-1.257-1.021-1.997s.357-1.44 1.021-1.998c.661-.552 1.615-.919 2.679-.918h22.454c1.064-.001 2.019.366 2.679.918.664.558 1.021 1.258 1.021 1.998h2c.001-1.414-.7-2.672-1.741-3.534-1.043-.868-2.439-1.381-3.959-1.382h-22.454c-1.52.001-2.916.514-3.959 1.382-1.041.862-1.742 2.12-1.741 3.534s.7 2.672 1.741 3.533c1.043.868 2.439 1.381 3.959 1.382h22.454c1.52-.001 2.916-.514 3.959-1.382 1.041-.861 1.742-2.119 1.741-3.533h-1" class="B"/><use xlink:href="#C" class="D"/><use xlink:href="#D" class="B"/><path d="M573.65 458.21c0 2.155-2.116 3.918-4.7 3.918h-22.454c-2.584 0-4.7-1.763-4.7-3.918s2.116-3.916 4.7-3.916h22.454c2.584 0 4.7 1.765 4.7 3.916" class="D"/><path d="M573.65 458.21h-1c0 .741-.357 1.441-1.021 1.999-.661.553-1.615.921-2.679.919h-22.454c-1.064.002-2.018-.366-2.679-.919s-1.021-1.258-1.021-1.999.357-1.438 1.021-1.996 1.615-.921 2.679-.92h22.454c1.064-.001 2.018.367 2.679.92s1.021 1.258 1.021 1.996h2c.001-1.412-.7-2.67-1.741-3.533s-2.439-1.381-3.959-1.383h-22.454c-1.52.002-2.916.516-3.959 1.383s-1.742 2.121-1.741 3.533.7 2.673 1.741 3.535c1.043.868 2.439 1.382 3.959 1.383h22.454c1.52-.001 2.916-.515 3.959-1.383 1.041-.862 1.742-2.121 1.741-3.535h-1" class="B"/><path d="M485.1 355.45l-1.961-58.06-.643-16.207h-24.281l-.644 16.207-1.961 58.06-.268 16.206v.001c0 14.463 1.393 52.678 2.24 74.535l.633 15.937h24.281l.632-15.937 2.24-74.535v-.001c0-3.921-.101-9.594-.268-16.206" class="C"/><path d="M483.14 297.39h-25.568l.644-16.207h24.281l.643 16.207m2.218 71.8h-30.004l.257-13.74h29.49l.257 13.74" class="H"/><g class="B"><path d="M459.1 461.2h22.502l2.834-89.546c0-19.233-2.501-81.354-2.834-89.545H459.1l-2.835 89.545c0 19.233 2.501 81.354 2.835 89.546zm24.283 1.855h-26.065l-.036-.89-2.873-90.511c0-20.539 2.844-89.814 2.873-90.511l.036-.89h26.065l.036.89 2.872 90.511c0 20.54-2.844 89.813-2.872 90.511l-.036.89z"/><use xlink:href="#B" x="-87.37"/></g><path d="M486.28 277.26c0 2.153-2.117 3.915-4.701 3.915h-22.454c-2.584 0-4.7-1.762-4.7-3.915s2.116-3.916 4.7-3.916h22.454c2.584 0 4.701 1.762 4.701 3.916" class="D"/><path d="M486.28 277.26h-1c0 .74-.357 1.439-1.021 1.997-.661.552-1.616.919-2.68.918h-22.454c-1.064.001-2.019-.366-2.679-.918-.664-.558-1.02-1.257-1.021-1.997s.357-1.44 1.021-1.998c.661-.552 1.615-.919 2.679-.918h22.454c1.064-.001 2.019.367 2.68.919.664.557 1.021 1.257 1.021 1.997h2c.001-1.414-.701-2.672-1.741-3.534-1.044-.868-2.44-1.381-3.96-1.382h-22.454c-1.52.001-2.916.514-3.959 1.382-1.041.862-1.742 2.12-1.741 3.534s.7 2.672 1.741 3.533c1.043.868 2.439 1.381 3.959 1.382h22.454c1.52-.001 2.916-.514 3.96-1.381s1.742-2.12 1.741-3.534h-1" class="B"/><use xlink:href="#C" x="-87.37" class="D"/><use xlink:href="#D" x="-87.37" class="B"/><path d="M486.28 458.21c0 2.155-2.117 3.918-4.701 3.918h-22.454c-2.584 0-4.7-1.763-4.7-3.918s2.116-3.916 4.7-3.916h22.454c2.584 0 4.701 1.765 4.701 3.916" class="D"/><path d="M486.28 458.21h-1c0 .741-.358 1.441-1.021 1.999-.661.553-1.616.921-2.68.919h-22.454c-1.064.002-2.018-.366-2.679-.919s-1.02-1.258-1.021-1.999.357-1.438 1.021-1.996 1.615-.921 2.679-.92h22.454c1.064-.001 2.018.367 2.68.92s1.021 1.258 1.021 1.996h2c.001-1.413-.701-2.67-1.741-3.533s-2.44-1.381-3.96-1.383h-22.454c-1.52.002-2.916.516-3.959 1.383s-1.742 2.121-1.741 3.533.7 2.673 1.741 3.535c1.043.868 2.439 1.382 3.959 1.383h22.454c1.52-.001 2.916-.515 3.96-1.383 1.041-.862 1.742-2.121 1.741-3.535h-1" class="B"/><path d="M397.73 354.47l-1.961-58.059-.643-16.207h-24.282l-.643 16.207-1.961 58.059-.268 16.206v.001c0 14.463 1.393 52.679 2.239 74.535l.633 15.938h24.282l.632-15.938 2.24-74.535v-.001c0-3.921-.102-9.594-.268-16.206" class="C"/><path d="M394.84 296.41h-2.631v-15.28h2.027l.604 15.28zm-10.856 0h6.225v-15.28h-6.225v15.28zm-8.225 0h6.224v-15.28h-6.224v15.28zm-2 0h-2.63l.604-15.28h2.026v15.28zm23.306 72.78h-4.856v-14.721h4.59l.266 14.721zm-13.081 0h6.225v-14.721h-6.225v14.721zm-8.225 0h6.224v-14.721h-6.224v14.721zm-2 0h-4.856l.266-14.721h4.59v14.721z" class="H"/><g class="B"><path d="M371.73 460.22h22.503l2.833-89.546c0-19.232-2.501-81.353-2.833-89.545H371.73l-2.835 89.545c0 19.234 2.502 81.355 2.835 89.546m24.283 1.856h-26.064l-.037-.89-2.872-90.512c0-20.539 2.844-89.813 2.872-90.51l.037-.89h26.064l.037.89 2.872 90.51c0 20.54-2.844 89.814-2.872 90.512l-.037.89"/><path d="M373.76 280.2v180.95a1 1 0 1 0 2 0V280.2a1 1 0 1 0-2 0m8.224 0v180.95a1 1 0 1 0 2.001 0V280.2a1 1 0 1 0-2.001 0m8.226 0v180.95a1 1 0 1 0 2 0V280.2a1 1 0 1 0-2 0"/></g><path d="M398.91 276.28c0 2.154-2.116 3.915-4.7 3.915h-22.454c-2.584 0-4.701-1.761-4.701-3.915s2.117-3.916 4.701-3.916h22.454c2.584 0 4.7 1.761 4.7 3.916" class="D"/><path d="M398.91 276.28h-1c-.001.74-.357 1.439-1.021 1.996s-1.615.92-2.679.919h-22.454c-1.064.001-2.019-.367-2.68-.919-.664-.557-1.021-1.256-1.021-1.996s.357-1.44 1.021-1.998c.661-.552 1.616-.92 2.68-.918h22.454c1.064-.002 2.019.366 2.679.918s1.02 1.257 1.021 1.998h2c.001-1.414-.7-2.673-1.741-3.535s-2.439-1.38-3.959-1.381h-22.454c-1.52.001-2.916.514-3.96 1.381s-1.742 2.121-1.741 3.535.701 2.672 1.742 3.533c1.043.868 2.439 1.38 3.959 1.382h22.454c1.52-.002 2.915-.514 3.959-1.382 1.041-.861 1.742-2.12 1.741-3.533h-1" class="B"/><use xlink:href="#E" class="D"/><path d="M402.89 466.24h-1c-.001 1.017-.414 1.937-1.088 2.612s-1.595 1.088-2.613 1.088h-30.425a3.68 3.68 0 0 1-2.612-1.088c-.674-.675-1.087-1.595-1.088-2.612v-.393c.001-1.016.414-1.936 1.088-2.611s1.595-1.087 2.612-1.087h30.425c1.018 0 1.938.414 2.613 1.087s1.087 1.595 1.088 2.611v.393h2v-.393c-.004-3.141-2.558-5.694-5.701-5.698h-30.425c-3.142.004-5.696 2.557-5.7 5.698v.393c.004 3.142 2.558 5.696 5.7 5.7h30.425c3.143-.004 5.697-2.558 5.701-5.7h-1" class="B"/><path d="M398.91 457.23c0 2.154-2.116 3.918-4.7 3.918h-22.454c-2.584 0-4.701-1.764-4.701-3.918s2.117-3.916 4.701-3.916h22.454c2.584 0 4.7 1.765 4.7 3.916" class="D"/><path d="M398.91 457.23h-1c0 .74-.358 1.441-1.021 1.998s-1.615.921-2.679.92h-22.454c-1.064.001-2.018-.367-2.68-.92s-1.021-1.258-1.021-1.998.357-1.439 1.021-1.997c.662-.552 1.616-.92 2.68-.919h22.454c1.064-.001 2.018.367 2.679.919.664.558 1.021 1.258 1.021 1.997h2c.001-1.413-.7-2.671-1.741-3.533-1.043-.868-2.439-1.382-3.959-1.383h-22.454c-1.52.001-2.916.515-3.96 1.383-1.04.862-1.742 2.12-1.741 3.533s.7 2.673 1.741 3.535c1.044.868 2.44 1.382 3.96 1.383h22.454c1.52-.001 2.916-.515 3.959-1.383s1.742-2.121 1.741-3.535h-1" class="B"/><path d="M310.35 354.47l-1.96-58.059-.643-16.207h-24.283l-.643 16.207-1.96 58.059-.268 16.206v.001c0 14.463 1.393 52.679 2.238 74.535l.633 15.938h24.283l.632-15.938 2.24-74.535v-.001c0-3.921-.104-9.594-.269-16.206" class="C"/><path d="M308.39 296.41h-25.569l.643-16.207h24.283l.643 16.207m2.224 72.78h-30.017l.264-14.721h29.489l.264 14.721" class="H"/><g class="B"><path d="M284.36 460.22h22.503l2.834-89.546c0-19.232-2.501-81.353-2.834-89.545H284.36l-2.834 89.545c0 19.234 2.501 81.355 2.834 89.546zm24.282 1.856h-26.063l-.036-.89-2.872-90.512c0-20.539 2.843-89.813 2.872-90.51l.036-.89h26.063l.038.89 2.872 90.51c0 20.54-2.843 89.814-2.872 90.512l-.038.89z"/><path d="M286.38 280.2v180.95a1 1 0 1 0 2 0V280.2a1 1 0 1 0-2 0m8.225 0v180.95a1 1 0 1 0 2 0V280.2a1 1 0 1 0-2 0m8.226 0v180.95a1 1 0 1 0 2 0V280.2a1 1 0 1 0-2 0"/></g><use xlink:href="#F" class="D"/><path d="M311.54 276.28h-1c-.001.74-.358 1.439-1.021 1.997-.66.551-1.613.919-2.678.918h-22.455c-1.065.001-2.019-.367-2.679-.919-.664-.557-1.021-1.256-1.021-1.996s.357-1.441 1.021-1.998 1.615-.92 2.679-.918h22.455c1.064-.002 2.018.366 2.678.918s1.02 1.257 1.021 1.998h2c0-1.414-.7-2.672-1.74-3.535s-2.439-1.38-3.959-1.381h-22.455c-1.52.001-2.916.514-3.959 1.381s-1.742 2.121-1.741 3.535.7 2.672 1.741 3.533c1.043.868 2.439 1.38 3.959 1.382h22.455c1.52-.002 2.915-.515 3.958-1.382s1.741-2.12 1.741-3.533h-1" class="B"/><use xlink:href="#E" x="-87.37" class="D"/><path d="M315.52 466.24h-1c-.001 1.017-.414 1.937-1.088 2.612s-1.596 1.088-2.613 1.088h-30.425c-1.017 0-1.938-.414-2.613-1.088s-1.087-1.595-1.087-2.612v-.393c0-1.016.414-1.936 1.087-2.611s1.596-1.087 2.613-1.087h30.425c1.017 0 1.938.414 2.613 1.087s1.087 1.595 1.088 2.611v.393h1.999v-.393c-.003-3.141-2.558-5.694-5.7-5.698h-30.425c-3.142.004-5.696 2.557-5.7 5.698v.393c.003 3.142 2.558 5.696 5.7 5.7h30.425c3.142-.004 5.697-2.558 5.7-5.7h-.999" class="B"/><use xlink:href="#G" class="D"/><path d="M311.54 457.23h-1c-.001.741-.358 1.441-1.021 1.999-.66.552-1.614.92-2.678.919h-22.455c-1.064.001-2.018-.367-2.679-.919-.664-.558-1.021-1.259-1.021-1.999s.357-1.439 1.021-1.997c.661-.552 1.615-.92 2.679-.919h22.455c1.064-.001 2.018.367 2.678.919.663.558 1.02 1.258 1.021 1.997h2c0-1.413-.7-2.67-1.74-3.533s-2.439-1.382-3.959-1.383h-22.455c-1.52.001-2.916.515-3.959 1.383-1.041.862-1.742 2.12-1.741 3.533s.7 2.672 1.741 3.535 2.439 1.382 3.959 1.383h22.455c1.52-.001 2.916-.515 3.959-1.383s1.74-2.122 1.74-3.535h-1" class="B"/><path d="M222.98 354.47l-1.961-58.059-.643-16.207h-24.283l-.642 16.207-1.961 58.059-.268 16.206v.001c0 14.463 1.393 52.679 2.239 74.535l.632 15.938h24.283l.632-15.938 2.24-74.535v-.001c0-3.921-.103-9.594-.268-16.206" class="C"/><path d="M220.09 296.41h-10.855v-15.28h10.251l.604 15.28zm-19.08 0h6.225v-15.28h-6.225v15.28zm-2 0h-2.63l.604-15.28h2.026v15.28zm23.306 72.78h-13.081v-12.922h12.687v-1.799h.128l.266 14.721zm-21.306 0h6.225v-12.922h-6.225v12.922zm-2 0h-4.856l.222-12.922h4.634v12.922z" class="H"/><g class="B"><path d="M196.98 460.22h22.502l2.834-89.546c0-19.232-2.501-81.353-2.834-89.545H196.98l-2.834 89.545c0 19.234 2.5 81.355 2.834 89.546m24.282 1.856h-26.063l-.037-.89-2.872-90.512c0-20.539 2.843-89.813 2.872-90.51l.037-.89h26.063l.038.89 2.872 90.51c0 20.54-2.843 89.814-2.872 90.512l-.038.89"/><path d="M199.01 280.2v180.95a1 1 0 1 0 2 0V280.2a1 1 0 1 0-2 0m8.225 0v180.95a1 1 0 1 0 2 0V280.2a1 1 0 1 0-2 0m8.225 0v180.95a1 1 0 1 0 2 0V280.2a1 1 0 1 0-2 0"/></g><use xlink:href="#F" x="-87.38" class="D"/><path d="M224.16 276.28h-1c-.001.74-.357 1.439-1.02 1.997-.66.551-1.614.919-2.679.918h-22.455c-1.064.001-2.018-.367-2.679-.919-.664-.557-1.021-1.256-1.021-1.996s.357-1.44 1.021-1.998c.661-.552 1.615-.92 2.679-.918h22.455c1.065-.002 2.018.366 2.679.918s1.019 1.257 1.02 1.998h2c.001-1.414-.7-2.672-1.74-3.535s-2.439-1.38-3.959-1.381h-22.455c-1.519.001-2.915.514-3.959 1.381s-1.742 2.121-1.741 3.535.7 2.672 1.741 3.533c1.044.868 2.44 1.38 3.959 1.382h22.455c1.52-.002 2.916-.514 3.959-1.382 1.04-.862 1.741-2.12 1.74-3.533h-1" class="B"/><path d="M228.15 466.24c0 2.586-2.115 4.7-4.701 4.7h-30.426c-2.584 0-4.699-2.114-4.699-4.7v-.393c0-2.584 2.115-4.698 4.699-4.698h30.426c2.586 0 4.701 2.114 4.701 4.698v.393" class="D"/><path d="M228.15 466.24h-1a3.68 3.68 0 0 1-1.088 2.612c-.675.674-1.595 1.088-2.613 1.088h-30.426a3.68 3.68 0 0 1-2.611-1.088c-.674-.675-1.087-1.595-1.088-2.612v-.393c.001-1.016.414-1.936 1.088-2.611s1.595-1.087 2.611-1.087h30.426c1.018 0 1.938.414 2.613 1.087a3.68 3.68 0 0 1 1.088 2.611v.393h2v-.393c-.004-3.141-2.559-5.694-5.701-5.698h-30.426c-3.141.004-5.695 2.557-5.699 5.698v.393c.004 3.142 2.558 5.696 5.699 5.7h30.426c3.142-.004 5.697-2.558 5.701-5.7h-1" class="B"/><use xlink:href="#G" x="-87.38" class="D"/><path d="M224.16 457.23h-1c-.001.741-.357 1.441-1.021 1.999-.66.552-1.614.92-2.678.919h-22.455c-1.064.001-2.018-.367-2.679-.919-.664-.558-1.021-1.259-1.021-1.999s.357-1.439 1.021-1.997c.661-.552 1.616-.92 2.679-.919h22.455c1.064-.001 2.018.367 2.678.919.664.558 1.02 1.258 1.021 1.997h2c.001-1.413-.7-2.671-1.74-3.533-1.043-.868-2.438-1.382-3.959-1.383h-22.455c-1.52.001-2.916.515-3.959 1.383-1.041.862-1.742 2.12-1.741 3.533s.7 2.672 1.741 3.535 2.439 1.382 3.959 1.383h22.455c1.52-.001 2.916-.515 3.959-1.383s1.741-2.122 1.74-3.535h-1" class="B"/><path d="M99.774 273.35H579.3v-4.27H99.774z" class="C"/><path d="M579.3 273.35v-1H100.77v-2.269H578.3v3.269h1v-1 1h1v-4.269a1.01 1.01 0 0 0-1-1H99.77a1.01 1.01 0 0 0-1 1v4.269a1.01 1.01 0 0 0 1 1H579.3a1.01 1.01 0 0 0 1-1h-1" class="B"/><path d="M92.01 233.4h495.05v-4.27H92.01z" class="C"/><path d="M587.06 233.4v-1H93.01v-2.267h493.05v3.267h1v-1 1h1v-4.267c0-.263-.106-.521-.292-.707a1.01 1.01 0 0 0-.708-.293H92.01c-.264 0-.521.107-.707.293s-.293.444-.293.707v4.267a1.01 1.01 0 0 0 .293.707c.186.186.443.293.707.293h495.05c.264 0 .521-.107.707-.293s.293-.444.293-.707h-1" class="B"/><path d="M337.32 218.97H87.572l4.438 10.16h490.62l4.43-10.16H337.32" class="F"/><path d="M337.32 218.97v-1H87.57a1 1 0 0 0-.916 1.4l4.437 10.158a1 1 0 0 0 .917.599h490.62c.398 0 .757-.234.916-.599l4.439-10.158a1 1 0 0 0-.917-1.4h-249.75v2h248.22l-3.564 8.157H92.662l-3.564-8.157h248.22v-1" class="B"/><path d="M272.28 218.97h133.66V181.7H272.28z" class="D"/><path d="M405.94 218.97v-1H273.28v-35.273h131.66v36.273h1v-1 1h1v-37.273c0-.264-.106-.521-.293-.708s-.443-.292-.707-.292H272.28c-.263 0-.521.106-.707.292a1.01 1.01 0 0 0-.293.708v37.273a1.01 1.01 0 0 0 1 1h133.66c.264 0 .521-.107.707-.293s.293-.444.293-.707h-1" class="B"/><path d="M281.83 209.31h114.56v-20.36H281.83z" class="C"/><path d="M287.11 205.75h10.22v-13h-10.22zm23.17 0h10.22v-13h-10.22zm23.18 0h10.21v-13h-10.21zm23.17 0h10.22v-13h-10.22zm23.17 0h10.22v-13H379.8z" class="H"/><path d="m282.76 208.38h112.7v-18.511h-112.7v18.511zm-1.856 1.856h116.42v-22.222h-116.42v22.222z" class="B"/><use xlink:href="#H" class="E"/><use xlink:href="#I" class="B"/><use xlink:href="#H" x="4.2" class="E"/><path d="M280.68 188.36v-1h-3.198v-4.658h2.198v5.658h1v-1 1h1v-6.658a1.01 1.01 0 0 0-.293-.708c-.186-.186-.444-.292-.707-.292h-4.198a1.01 1.01 0 0 0-1 1v6.658a1.01 1.01 0 0 0 1 1h4.198a1.01 1.01 0 0 0 1-1h-1" class="B"/><use xlink:href="#H" x="20.85" class="E"/><use xlink:href="#J" class="B"/><use xlink:href="#K" class="E"/><path d="M301.52 188.36v-1h-3.196v-4.658h2.196v5.658h1v-1 1h1v-6.658a1.01 1.01 0 0 0-1-1h-4.196c-.264 0-.521.106-.707.292s-.293.444-.293.708v6.658c0 .263.106.521.293.707s.443.293.707.293h4.196a1.01 1.01 0 0 0 .708-.293c.186-.186.292-.444.292-.707h-1" class="B"/><use xlink:href="#H" x="41.7" class="E"/><use xlink:href="#J" x="20.85" class="B"/><use xlink:href="#K" x="20.85" class="E"/><path d="M322.37 188.36v-1h-3.197v-4.658h2.197v5.658h1v-1 1h1v-6.658a1.01 1.01 0 0 0-.293-.708c-.186-.186-.444-.292-.707-.292h-4.197c-.264 0-.521.106-.707.292s-.293.444-.293.708v6.658a1.01 1.01 0 0 0 .293.707c.186.186.443.293.707.293h4.197a1.01 1.01 0 0 0 1-1h-1" class="B"/><use xlink:href="#H" x="62.54" class="E"/><path d="M339.02 188.36v-1h-3.198v-4.658h2.197l.001 5.658h1v-1 1h.999v-6.658a1.01 1.01 0 0 0-.999-1h-4.198c-.263 0-.521.106-.707.292a1.01 1.01 0 0 0-.293.708v6.658a1.01 1.01 0 0 0 1 1h4.198a1.01 1.01 0 0 0 .707-.293c.186-.186.292-.444.292-.707h-.999" class="B"/><use xlink:href="#H" x="66.74" class="E"/><path d="M343.22 188.36v-1h-3.198v-4.658h2.198v5.658h1v-1 1h1v-6.658a1.01 1.01 0 0 0-.293-.708c-.186-.186-.444-.292-.707-.292h-4.197a1.01 1.01 0 0 0-1 1v6.658c0 .263.106.521.292.707a1.01 1.01 0 0 0 .708.293h4.197a1.01 1.01 0 0 0 1-1h-1" class="B"/><use xlink:href="#H" x="83.39" class="E"/><path d="M359.87 188.36v-1h-3.197v-4.658h2.197v5.658h1v-1 1h1v-6.658c0-.264-.106-.521-.293-.708s-.443-.292-.707-.292h-4.197c-.263 0-.521.106-.707.292a1.01 1.01 0 0 0-.293.708v6.658a1.01 1.01 0 0 0 1 1h4.197c.264 0 .521-.107.707-.293s.293-.444.293-.707h-1" class="B"/><use xlink:href="#K" x="62.54" class="E"/><use xlink:href="#I" x="87.58" class="B"/><use xlink:href="#H" x="104.24" class="E"/><path d="M380.72 188.36v-1h-3.197v-4.658h2.197v5.658h1v-1 1h1v-6.658a1.01 1.01 0 0 0-.293-.708c-.186-.186-.444-.292-.707-.292h-4.197a1.01 1.01 0 0 0-1 1v6.658c0 .263.106.521.292.707a1.01 1.01 0 0 0 .708.293h4.197a1.01 1.01 0 0 0 1-1h-1" class="B"/><use xlink:href="#K" x="83.39" class="E"/><path d="M384.91 188.36v-1h-3.197v-4.658h2.197v5.658h1v-1 1h1v-6.658a1.01 1.01 0 0 0-.293-.708c-.186-.186-.444-.292-.707-.292h-4.197c-.263 0-.521.106-.707.292a1.01 1.01 0 0 0-.293.708v6.658a1.01 1.01 0 0 0 1 1h4.197a1.01 1.01 0 0 0 1-1h-1" class="B"/><use xlink:href="#H" x="125.08" class="E"/><path d="M401.56 188.36v-1h-3.197v-4.658h2.197v5.658h1v-1 1h1v-6.658a1.01 1.01 0 0 0-1-1h-4.197c-.263 0-.521.106-.707.292a1.01 1.01 0 0 0-.293.708v6.658a1.01 1.01 0 0 0 1 1h4.197a1.01 1.01 0 0 0 1-1h-1" class="B"/><use xlink:href="#H" x="129.28" class="E"/><path d="M405.76 188.36v-1h-3.198v-4.658h2.198v5.658h1v-1 1h1v-6.658a1.01 1.01 0 0 0-.293-.708c-.186-.186-.444-.292-.707-.292h-4.198a1.01 1.01 0 0 0-1 1v6.658c0 .263.106.521.292.707a1.01 1.01 0 0 0 .708.293h4.198a1.01 1.01 0 0 0 1-1h-1" class="B"/><path d="M265.22 181.7h147.79v-6H265.22z" class="C"/><path d="M413.01 175.7v-1H265.23a1 1 0 0 0-1 1v6.006c0 .263.106.52.293.707s.443.293.707.293h147.78a1.01 1.01 0 0 0 1-1V175.7c0-.264-.107-.521-.293-.707s-.444-.293-.707-.293v1h-1v5.006H266.23V176.7h146.78v-1h-1 1" class="B"/><path d="M274.38 175.7h130.13v-4.72H274.38z" class="F"/><path d="M404.51 170.98v-1H274.39a1.01 1.01 0 0 0-1 1v4.716a1.01 1.01 0 0 0 1 1h130.12a1.01 1.01 0 0 0 1-1v-4.716a1.01 1.01 0 0 0-1-1v1h-1v3.716H275.39v-2.716h129.12v-1h-1 1" class="B"/><path d="m375.91 159.84-9.175 11.134" class="E"/><path d="M375.14 159.21l-9.174 11.134a1 1 0 1 0 1.543 1.272l9.175-11.134a1 1 0 0 0-1.544-1.272" class="B"/><path d="M401.36 153.43s-.619 14.535-2.628 14.69-3.247-1.082-2.474-2.784 1.236-7.731 1.236-7.731-3.093 6.494-6.648 6.958-2.01 6.417-2.01 6.417h-4.484v-4.716l-3.403 2.01v2.706h-3.711s-.618-5.026-1.855-6.727-1.237-13.916 1.391-15.153 3.71-6.031 5.258-6.185 3.402-3.865 4.639-7.731 3.788-17.898 10.746-19.174l2.088-1.74v2.435s1.044-.231 1.855.232l1.972-.348-.696 2.088s.464 4.175 0 5.335.696 5.682.696 5.682-.348 1.044-1.855 1.392-1.856 1.508-1.624 3.363 2.435 7.538 1.971 10.205-.306 6.073-.464 8.776" class="E"/><path d="M401.36 153.43l-.999-.042-.03.615-.687 7.948c-.201 1.549-.456 3.012-.747 4.032-.142.508-.301.906-.419 1.106l-.071.108-.021.025.182.185-.12-.227-.062.042.182.185-.12-.227.248.472-.04-.53-.208.058.248.472-.04-.53-.257.011c-.54.001-.917-.144-1.111-.296a.6.6 0 0 1-.263-.52c0-.138.034-.326.143-.567.26-.584.429-1.31.591-2.154.472-2.502.73-5.896.732-5.914a1 1 0 0 0-1.9-.507l-.029.061a22.9 22.9 0 0 1-2.09 3.387c-.563.746-1.209 1.47-1.868 2.006s-1.32.872-1.888.942c-.625.08-1.188.306-1.638.644-.68.509-1.073 1.223-1.291 1.929-.22.711-.285 1.441-.286 2.123.003 1.577.357 2.918.367 2.964l.968-.251v-1h-3.484v-3.716c0-.36-.192-.69-.505-.868s-.694-.176-1.004.007l-3.402 2.01a1 1 0 0 0-.492.861v1.706h-2.711v1l.993-.122-.478-2.81-.608-2.337c-.253-.763-.536-1.465-.954-2.046l-.016-.028c-.047-.084-.136-.325-.21-.65-.233-.986-.386-2.723-.384-4.583-.001-1.933.158-4.028.492-5.668.166-.818.378-1.522.607-2.008.223-.496.475-.718.52-.723.861-.408 1.52-1.056 2.071-1.751.824-1.045 1.434-2.236 1.969-3.128.264-.444.511-.811.701-1.02a1.14 1.14 0 0 1 .208-.191l.023-.013-.056-.147.015.155.041-.008-.056-.147.015.155c.383-.039.722-.18 1.018-.362.518-.323.94-.774 1.349-1.315.608-.812 1.171-1.842 1.699-3s1.01-2.443 1.426-3.744l1.234-4.485c.774-2.791 1.84-6.177 3.31-8.913.732-1.368 1.565-2.568 2.477-3.452s1.886-1.449 2.953-1.646a1.01 1.01 0 0 0 .46-.215l.448-.373v.3a1 1 0 0 0 1.217.977l-.079-.356.072.357.007-.001-.079-.356.072.357a2.36 2.36 0 0 1 .413-.036c.259-.002.559.052.736.159.204.116.438.157.67.116l.318-.056-.165.495c-.046.138-.061.281-.045.427l.031.301.169 3.024-.04 1.003c-.025.276-.078.491-.095.524-.159.418-.175.785-.181 1.195.004 1.004.217 2.238.423 3.271l.414 1.837.969-.249-.949-.316.378.126-.367-.156-.011.03.378.126-.367-.156c-.003.009-.066.15-.23.307s-.426.342-.912.456c-.791.174-1.497.602-1.916 1.248s-.548 1.379-.549 2.142a8.74 8.74 0 0 0 .073 1.072c.069.531.231 1.159.435 1.909l1.033 3.79c.326 1.32.563 2.624.56 3.548 0 .257-.017.482-.049.663-.487 2.835-.319 6.261-.477 8.889l-.001.016.999.042.999.058c.156-2.778.01-6.162.45-8.662.057-.326.079-.66.079-1.006-.006-1.638-.488-3.593-.974-5.396l-.69-2.471-.379-1.628c-.039-.308-.058-.584-.058-.824-.001-.542.101-.869.217-1.038s.256-.292.698-.403c.953-.216 1.617-.691 2.009-1.13s.538-.826.57-.92a1.01 1.01 0 0 0 .02-.564l-.033-.13-.432-1.978c-.169-.882-.312-1.88-.31-2.503 0-.14.007-.259.018-.341l.016-.093.005-.019-.019-.006.018.007.001-.001-.019-.006.018.007c.138-.354.188-.693.228-1.071a12.41 12.41 0 0 0 .05-1.199c-.001-1.661-.211-3.527-.212-3.546l-.994.11.948.317.697-2.088c.112-.336.039-.702-.192-.97s-.582-.393-.931-.332l-1.972.349.174.984.497-.868c-.634-.357-1.263-.419-1.729-.422s-.792.072-.84.082l.217.976h1v-2.435a1 1 0 0 0-.576-.906c-.352-.165-.765-.111-1.064.138l-2.088 1.739.64.769-.18-.984c-2.062.38-3.719 1.685-5.043 3.352-1.99 2.511-3.348 5.918-4.366 9.07-.506 1.576-.922 3.088-1.268 4.382l-.842 3.049c-.601 1.882-1.359 3.729-2.12 5.068-.379.669-.761 1.209-1.086 1.548-.161.169-.307.286-.412.35s-.163.075-.167.075c-.449.045-.814.25-1.093.478-.49.406-.825.91-1.172 1.463-.508.828-1.004 1.783-1.561 2.599s-1.163 1.463-1.758 1.735c-.735.362-1.147.99-1.481 1.686-.49 1.058-.79 2.404-.995 3.892s-.291 3.101-.292 4.631c.001 1.4.076 2.724.221 3.819a11.66 11.66 0 0 0 .278 1.467c.12.431.241.792.494 1.151.202.27.459.834.67 1.491.324.99.581 2.197.749 3.144.085.474.148.883.191 1.173l.047.337.015.116a1 1 0 0 0 .992.878h3.711c.264 0 .521-.107.707-.293s.293-.444.293-.707v-2.135l1.403-.829v2.964c0 .263.106.521.292.707a1.01 1.01 0 0 0 .708.293h4.484a1 1 0 0 0 .968-1.252l-.002-.006a11.31 11.31 0 0 1-.301-2.455c-.004-.73.112-1.46.352-1.923.119-.234.256-.402.423-.527s.373-.218.699-.263c1.173-.158 2.181-.768 3.059-1.513 1.314-1.127 2.377-2.612 3.141-3.826s1.21-2.156 1.222-2.18l-.903-.43-.997-.077a58.96 58.96 0 0 1-.083.952 67.82 67.82 0 0 1-.415 3.515c-.095.64-.202 1.26-.317 1.781s-.243.95-.335 1.147a3.37 3.37 0 0 0-.322 1.394c-.01.842.409 1.634 1.049 2.11.638.484 1.448.704 2.325.705a5.7 5.7 0 0 0 .41-.015c.435-.034.773-.259.991-.481.412-.428.617-.913.829-1.495.352-1.012.615-2.333.838-3.789.659-4.352.891-9.861.892-9.879l-.999-.043.999.058-.999-.058" class="B"/><path d="M385.08 139.25s-8.212 2.8-18.35-.538" class="E"/><path d="M384.76 138.3l-.023.008c-.301.098-3.325 1.039-7.779 1.038-2.833 0-6.243-.378-9.912-1.587a1 1 0 1 0-.625 1.9 33.67 33.67 0 0 0 10.537 1.687c5.051-.001 8.375-1.129 8.448-1.153a1 1 0 1 0-.646-1.893" class="B"/><path fill="#ca6a6f" d="M334.87 122.74l1.34-.93v-18.02h-1.34v18.95"/><path d="M334.87 122.74l.57.821 1.336-.928c.27-.187.43-.493.43-.821v-18.014a1.01 1.01 0 0 0-1-1h-1.336a1.01 1.01 0 0 0-1 1v18.942a1 1 0 0 0 .537.886c.33.173.727.148 1.033-.065l-.57-.821h1v-17.942h.336v-1h-1v17.491l-.906.629.57.822h1" class="B"/><path d="M367.89 139.51c-1.856-2.783-4.288-12.68-4.232-15.153s.25-8.582-.794-10.09l.697-4.175-2.552 2.436-1.623-.232-2.204-2.784v3.943s-1.507 1.392-1.623 4.755.695 7.538.579 10.09-.59 6.494-.59 6.494-2.562 5.321-3.986 4.946-.9-9.446-3.149-10.346-3.988 1.225-3.988 1.225l-.812-3.015s1.16-1.972.58-3.247c-.566-1.246-4.218-3.15-4.39-3.239v-.009l-.008.005-.009-.005v.009c-.173.09-3.824 1.993-4.39 3.239-.581 1.275.58 3.247.58 3.247l-.812 3.015s-.696-1.276-2.319-2.436.115-4.29.811-5.102 3.944-2.668 3.48-4.987.231-3.943-5.799 2.204-3.48 10.205-3.48 10.205c-1.507.348-3.815 4.291-3.815 4.291s-.475-3.943-.591-6.494.695-6.727.58-10.09-1.624-4.755-1.624-4.755v-3.943l-2.203 2.784-1.624.232-2.551-2.436.696 4.175c-1.044 1.508-.851 7.616-.795 10.09s-2.376 12.37-4.231 15.153-1.083 15.773 0 19.638 3.092 11.829 3.092 11.829h50.007l3.092-11.829c1.083-3.865 1.855-16.855 0-19.638" class="E"/><path d="M367.89 139.51l.832-.555c-.373-.551-.862-1.635-1.327-2.932-.705-1.952-1.398-4.416-1.908-6.615l-.61-3.003c-.145-.865-.222-1.579-.22-1.96l.001-.061v-.005l.051-3.31-.163-4.122c-.065-.649-.152-1.253-.279-1.794s-.284-1.017-.581-1.455l-.822.569.987.164.696-4.174a1 1 0 0 0-.519-1.049c-.381-.202-.845-.137-1.158.161l-2.2 2.1-.748-.107-1.956-2.471a1 1 0 0 0-1.784.621v3.943h1l-.679-.734c-.142.12-1.824 1.791-1.944 5.455l-.012.722c.001 1.564.155 3.211.306 4.758l.296 4.109-.01.49-.334 4.147-.175 1.624-.075.648.993.12-.901-.434-.024.049c-.124.253-.727 1.457-1.439 2.557-.353.548-.738 1.07-1.066 1.411a2.27 2.27 0 0 1-.4.348l-.078.042.071.199v-.208l-.071.009.071.199v-.208.413l.104-.399-.104-.014v.413l.104-.399-.125.478.385-.33c-.013-.016-.098-.105-.259-.147l-.126.477.385-.33-.055.047.059-.042-.004-.005-.055.047.059-.042c-.014-.01-.114-.213-.192-.513-.147-.53-.277-1.354-.4-2.272l-.689-4.376c-.163-.696-.359-1.341-.646-1.91-.145-.285-.315-.553-.534-.795s-.495-.458-.833-.593c-.51-.205-1.02-.294-1.497-.294-1.135.004-2.034.477-2.642.91s-.957.859-.995.903l.774.634.965-.26-.811-3.015-.966.26.862.507c.017-.029.224-.382.437-.909s.439-1.227.444-2.018c-.001-.395-.062-.822-.252-1.241-.136-.295-.314-.527-.512-.749-.346-.382-.767-.728-1.218-1.061-1.344-.986-2.977-1.831-3.11-1.902l-.461.887h1v-.009c0-.354-.19-.684-.495-.863s-.687-.182-.996-.008l-.007.004.49.872.447-.895-.009-.004c-.311-.156-.677-.139-.973.044s-.474.503-.474.85v.009h1l-.461-.887-2.125 1.23c-.526.337-1.069.712-1.545 1.11a6.52 6.52 0 0 0-.658.623c-.198.222-.376.454-.512.749-.19.419-.252.846-.252 1.241.005.791.234 1.489.444 2.018s.42.88.437.909l.862-.507-.966-.26-.812 3.015.966.26.878-.479c-.048-.085-.82-1.484-2.616-2.77a.5.5 0 0 1-.182-.224c-.041-.094-.072-.236-.072-.426-.006-.444.19-1.114.466-1.699.268-.583.623-1.114.777-1.289.049-.065.342-.321.7-.61.544-.447 1.267-1.034 1.887-1.77.31-.37.597-.78.815-1.245s.364-.991.364-1.559c0-.214-.021-.432-.065-.65l-.25-1.487c-.062-.25-.131-.517-.349-.821-.109-.15-.27-.305-.476-.414a1.4 1.4 0 0 0-.653-.159c-.457.01-.78.169-1.118.361-.501.299-1.052.749-1.8 1.43l-2.847 2.789c-3.404 3.459-4.308 6.459-4.302 8.538.001 1.756.621 2.79.69 2.9l.846-.532-.225-.975c-.362.086-.659.247-.934.432-.478.328-.9.752-1.305 1.211-1.197 1.37-2.196 3.091-2.214 3.118l.863.505.992-.12-.075-.649-.509-5.771-.011-.487c-.001-1.113.145-2.565.297-4.111l.306-4.761-.012-.719c-.12-3.664-1.802-5.335-1.944-5.455l-.679.734h1v-3.943a1 1 0 0 0-1.784-.621l-1.956 2.471-.748.107-2.2-2.1c-.312-.298-.776-.363-1.158-.161s-.59.622-.519 1.049l.696 4.174.987-.164-.823-.569c-.296.438-.448.914-.58 1.457-.19.81-.295 1.771-.36 2.797l-.083 3.125.051 3.303v-.002l.001.066c.003.514-.137 1.596-.386 2.88-.371 1.937-.979 4.397-1.657 6.605l-1.046 3.022c-.348.875-.699 1.593-.975 2.004-.295.447-.488.959-.65 1.545-.472 1.746-.635 4.222-.639 6.901l.337 6.845c.209 2.139.486 3.97.821 5.172l1.946 7.343.809 3.158.33 1.303a1 1 0 0 0 .97.755h50.007c.459 0 .857-.31.969-.755.001-.002.126-.497.331-1.303l2.755-10.502c.334-1.201.611-3.032.821-5.17a73.01 73.01 0 0 0 .336-6.845c0-1.783-.078-3.485-.264-4.932-.094-.724-.215-1.384-.374-1.97s-.355-1.098-.65-1.545l-1.664 1.11c.11.161.261.502.384.963.387 1.392.572 3.795.568 6.374l-.327 6.651s-.481 3.852-.756 4.825c-1.089 3.891-3.097 11.85-3.099 11.854l.97.245v-1h-50.007v1l.97-.245c-.002-.004-2.01-7.963-3.099-11.854-.275-.973-.558-2.761-.757-4.825s-.327-4.436-.327-6.652c0-1.722.077-3.357.248-4.675.085-.659.194-1.238.32-1.698s.274-.802.385-.963c.545-.825 1.043-1.985 1.543-3.363.744-2.06 1.449-4.576 1.975-6.843a52.21 52.21 0 0 0 .635-3.127c.153-.927.245-1.691.247-2.288l-.002-.109v-.001l-.05-3.257c-.001-1.321.035-2.744.153-3.929.059-.591.139-1.122.236-1.535s.223-.706.279-.777c.147-.213.207-.478.164-.733l-.203-1.216.382.364a1 1 0 0 0 .832.267l1.623-.232a1 1 0 0 0 .643-.37l.419-.53v1.069a1 1 0 0 0 .322.735l.25-.271-.26.262.01.009.25-.271-.26.262c.029.039 1.207 1.19 1.312 4.064.008.212.011.429.011.65 0 1.433-.146 3.027-.297 4.567s-.305 3.029-.306 4.305a12.11 12.11 0 0 0 .013.578c.12 2.617.596 6.556.597 6.568a1 1 0 0 0 1.855.386l.023-.037c.117-.198.699-1.155 1.398-2.069.347-.457.727-.902 1.068-1.224.169-.16.329-.289.456-.372a.86.86 0 0 1 .233-.12 1 1 0 0 0 .7-.593c.124-.3.095-.639-.078-.913l-.463.29.47-.279-.007-.011-.463.29.47-.279-.058-.115c-.109-.24-.331-.834-.332-1.732.007-1.503.601-3.936 3.73-7.137 1.549-1.58 2.649-2.637 3.397-3.269.373-.315.659-.523.84-.629l.174-.088-.002-.005.001.004.001.001-.002-.005.001.004-.073-.367v.373l.073-.006-.073-.367v.373-.603l-.28.531c.097.053.212.074.28.072v-.603l-.28.531.276-.524-.461.376.185.148.276-.524-.461.376.252-.206-.295.141.043.065.252-.206-.295.141.01.028c.027.078.068.289.107.558s.085.605.158.972l.026.258c0 .295-.101.616-.316.974-.319.536-.89 1.103-1.459 1.588l-.822.682c-.257.215-.478.398-.687.638-.332.393-.72.997-1.072 1.749-.344.75-.646 1.615-.653 2.541 0 .397.062.813.235 1.217s.465.783.857 1.06c.725.518 1.242 1.063 1.573 1.47.165.203.284.372.358.484l.078.124.014.025.002.003.481-.269-.484.264.003.005.481-.269-.484.264a1 1 0 0 0 .996.514c.405-.048.742-.34.848-.733l.811-3.015a1 1 0 0 0-.104-.767l-.291.171.293-.169-.002-.002-.291.171.293-.169a5.59 5.59 0 0 1-.322-.682c-.156-.385-.288-.878-.284-1.233 0-.184.031-.322.073-.413.005-.017.065-.117.177-.238.194-.217.53-.506.916-.788 1.165-.859 2.756-1.693 2.848-1.74a1 1 0 0 0 .539-.887v-.009h-1l-.447.895.009.004c.296.148.649.139.937-.023l.008-.004-.49-.872h-1v.009a1 1 0 0 0 .538.887 28.25 28.25 0 0 1 1.97 1.141c.48.307.967.646 1.34.959a4.38 4.38 0 0 1 .455.428c.111.121.172.221.177.238.042.091.073.229.073.413.004.367-.138.879-.299 1.27a6.18 6.18 0 0 1-.218.48l-.069.13-.017.03-.003.005.294.17-.293-.172-.001.002.294.17-.293-.172c-.135.23-.173.509-.103.767l.811 3.015a1 1 0 0 0 .756.718c.368.079.745-.053.983-.344l-.048-.04.047.041.001-.001-.048-.04.047.041a3.74 3.74 0 0 1 .688-.598c.395-.269.893-.486 1.403-.484.233.001.478.041.754.151l.067.051c.082.076.225.28.355.592.235.543.438 1.381.597 2.306.243 1.394.402 2.987.615 4.305.109.662.227 1.252.407 1.767.092.258.198.502.369.744.167.234.434.505.855.619a1.57 1.57 0 0 0 .404.051c.473-.005.834-.184 1.134-.381.524-.354.942-.835 1.353-1.37 1.207-1.596 2.234-3.751 2.251-3.779a1.02 1.02 0 0 0 .092-.315c.001-.012.477-3.951.596-6.568.008-.189.012-.382.012-.58-.001-1.276-.156-2.76-.306-4.303s-.296-3.132-.296-4.564a19.88 19.88 0 0 1 .011-.653c.054-1.537.419-2.573.747-3.22a4.32 4.32 0 0 1 .427-.684l.117-.139.021-.021-.26-.261.25.27.01-.009-.26-.261.25.27a1 1 0 0 0 .322-.735v-1.069l.42.53c.158.201.389.334.642.37l1.623.232a1 1 0 0 0 .832-.267l.382-.364-.203 1.215a1 1 0 0 0 .164.734c.056.071.185.365.278.776.147.619.25 1.5.309 2.459a49.36 49.36 0 0 1 .08 2.998c0 1.275-.032 2.456-.051 3.265l.001-.004-.002.115c.003.791.164 1.901.421 3.257.389 2.022 1.009 4.529 1.711 6.815.351 1.142.722 2.229 1.1 3.176s.757 1.752 1.169 2.372l.832-.555" class="B"/><path fill="#ca6a6f" d="M334.87 122.03v25.52h1.34v-26.81l-1.34 1.29"/><path d="M334.87 122.03h-1v25.525a1.01 1.01 0 0 0 1 1h1.336a1.01 1.01 0 0 0 1-1v-26.812a1 1 0 0 0-1.694-.721l-1.336 1.288a1 1 0 0 0-.306.72h1l.694.72 1.336-1.287-.694-.72h-1v25.812h-.336v1h1V122.03h-1l.694.72-.694-.72" class="B"/><path d="M342.59 93.971h-5.07V88.9h-3.96v5.071h-5.06v3.95h5.06v5.069h3.96v-5.069h5.07v-3.95" class="E"/><path d="M342.59 93.971v-1h-4.07V88.9a1.01 1.01 0 0 0-1-1h-3.951a1.01 1.01 0 0 0-1 1v4.071h-4.07c-.263 0-.521.106-.707.292a1.01 1.01 0 0 0-.293.708v3.95a1.01 1.01 0 0 0 1 1h4.07v4.07a1.01 1.01 0 0 0 1 1h3.951a1.01 1.01 0 0 0 1-1v-4.07h4.07a1.01 1.01 0 0 0 1-1v-3.95a1.01 1.01 0 0 0-.293-.708c-.186-.186-.444-.292-.707-.292v1h-1v2.95h-4.07a1 1 0 0 0-1 1v4.07h-1.951v-4.07c0-.264-.106-.521-.292-.707s-.444-.293-.708-.293h-4.07v-1.95h4.07a1.01 1.01 0 0 0 1-1V89.9h1.951v4.071c0 .263.106.52.293.707s.443.293.707.293h5.07v-1h-1 1" class="B"/><path d="M335.54 102.32a6.38 6.38 0 0 1-6.379-6.378 6.38 6.38 0 0 1 6.379-6.379 6.38 6.38 0 0 1 6.378 6.379 6.38 6.38 0 0 1-6.378 6.378zm0-15.308a8.93 8.93 0 0 0-8.93 8.93 8.93 8.93 0 1 0 17.86 0 8.93 8.93 0 0 0-8.93-8.93z" class="E"/><path d="M335.54 102.32v-1c-1.488 0-2.827-.6-3.803-1.575a5.36 5.36 0 0 1 0-7.606 5.36 5.36 0 0 1 7.606 0c.975.976 1.574 2.314 1.575 3.803a5.36 5.36 0 0 1-1.575 3.803c-.977.975-2.315 1.575-3.803 1.575v2a7.38 7.38 0 0 0 7.378-7.378 7.38 7.38 0 0 0-7.378-7.379 7.38 7.38 0 0 0-7.379 7.379 7.38 7.38 0 0 0 7.379 7.378v-1zm0-15.308v-1c-5.484.001-9.929 4.445-9.93 9.93a9.93 9.93 0 0 0 9.93 9.929c5.484 0 9.929-4.445 9.93-9.929s-4.446-9.929-9.93-9.93v2c2.193 0 4.169.886 5.607 2.323a7.9 7.9 0 0 1 0 11.214 7.9 7.9 0 0 1-11.214 0c-1.437-1.438-2.323-3.414-2.323-5.607s.886-4.169 2.323-5.607 3.414-2.323 5.607-2.323v-1z" class="B"/><path d="M339.82 78.756c.208 1.709-1.798 1.776-3.135 1.638-.046-.146-.377-1.286.008-2.424.413-1.218 1.747-2.841.53-4.117s-1.682-1.322-1.682-1.322-.464.047-1.682 1.322.117 2.899.53 4.117c.385 1.138.053 2.278.008 2.424-1.336.138-3.343.071-3.136-1.638.308-2.539-11.597-8.517-11.597-8.517s2.087 2.629 2.241 4.716 2.398 4.02 2.552 5.412 3.401 4.253 4.484 5.335 4.491 1.57 4.491 1.57l2.109-.256 2.109.256s3.408-.488 4.491-1.57 4.329-3.943 4.483-5.335 2.398-3.325 2.552-5.412 2.242-4.716 2.242-4.716-11.906 5.978-11.598 8.517" class="E"/><path d="M339.82 78.756l-.992.12.007.117c-.003.127-.022.143-.032.162s-.092.106-.332.178c-.232.07-.577.109-.935.108a7.59 7.59 0 0 1-.749-.041l-.102.994.954-.3a3.46 3.46 0 0 1-.13-.943 2.68 2.68 0 0 1 .131-.86c.1-.304.347-.773.589-1.308s.489-1.161.494-1.909c.011-.637-.24-1.363-.777-1.911-.649-.679-1.122-1.061-1.483-1.292s-.616-.313-.822-.335h-.199c-.207.022-.463.106-.823.335s-.834.613-1.483 1.292c-.537.548-.788 1.274-.777 1.911.005.748.257 1.371.494 1.909l.589 1.308c.095.279.131.58.131.859.001.499-.119.912-.132.952l.956.292-.102-.994-.749.041c-.478.005-.932-.076-1.126-.181-.101-.051-.13-.088-.142-.105s-.029-.036-.032-.163l.007-.115.001-.001.013-.219a2.25 2.25 0 0 0-.222-.939c-.243-.521-.61-.966-1.056-1.422-.783-.79-1.834-1.589-2.991-2.378-3.461-2.354-7.866-4.561-7.886-4.573a1 1 0 0 0-1.232 1.516l.017.021c.096.124.591.776 1.063 1.603.476.821.906 1.84.948 2.544.115 1.382.83 2.495 1.436 3.439l.803 1.256c.208.356.31.644.316.753v.001a2.77 2.77 0 0 0 .29.917c.244.488.583.955.974 1.431.584.711 1.287 1.429 1.935 2.065l1.573 1.518c.431.424.941.687 1.478.917.804.336 1.679.56 2.371.712l1.206.224.262.003 1.989-.242 1.989.242.262-.003a19.5 19.5 0 0 0 1.95-.401c.524-.138 1.091-.31 1.627-.535.537-.23 1.047-.493 1.479-.917l2.61-2.572c.501-.533.98-1.08 1.367-1.621.193-.271.364-.541.503-.821s.249-.572.29-.918v.001c.006-.109.108-.398.316-.753l1.268-1.998c.455-.777.89-1.662.971-2.698.044-.752.533-1.858 1.043-2.707l.689-1.061.221-.302.059-.077.016-.021c.291-.366.288-.889-.007-1.253s-.806-.473-1.225-.263l-5.876 3.279c-1.474.905-2.954 1.892-4.107 2.857-.578.485-1.075.961-1.462 1.455a4.05 4.05 0 0 0-.488.782 2.25 2.25 0 0 0-.222.939l.014.222v-.003l.992-.12.993-.123-.193.024h.194l-.001-.024-.193.024h.194-.058l.058.007v-.007h-.058l.058.007c-.01-.009.089-.277.375-.607.488-.589 1.428-1.372 2.535-2.15 1.663-1.174 3.709-2.376 5.33-3.276l2.018-1.088.587-.305.208-.105-.449-.894-.783-.622c-.018.024-.564.71-1.142 1.689-.572.988-1.204 2.239-1.314 3.575-.04.706-.524 1.603-1.116 2.494l-.864 1.356c-.261.463-.497.938-.569 1.525v.001c.002.002-.021.105-.095.251-.126.259-.389.642-.725 1.048-.504.614-1.167 1.296-1.791 1.907l-1.585 1.531c-.11.118-.432.321-.839.488-.611.258-1.401.467-2.022.602l-.772.151-.221.037-.071.01.141.99.121-.992-2.109-.257h-.242l-2.109.257.121.992.142-.99-.131-.02c-.309-.05-1.127-.195-1.948-.433-.41-.118-.82-.259-1.156-.412s-.594-.321-.691-.423l-2.57-2.53c-.465-.492-.894-.989-1.194-1.409-.149-.21-.266-.4-.339-.547a.97.97 0 0 1-.095-.251h.001c-.071-.587-.308-1.062-.568-1.526l-1.282-2.022c-.395-.662-.664-1.299-.698-1.828-.111-1.336-.742-2.587-1.315-3.575-.578-.979-1.123-1.665-1.141-1.689l-.783.622-.449.894.487.249 6.303 3.615c1.223.789 2.371 1.611 3.169 2.332.399.358.709.693.891.951.091.128.149.235.176.304l.024.071.002.01.068-.008h-.068v.008l.068-.008h-.068.176l-.175-.022-.001.022h.176l-.175-.022v-.001c-.014.12-.022.239-.022.358-.003.458.125.915.371 1.277.373.551.92.831 1.423.981.511.15 1.023.19 1.506.191.339 0 .662-.022.954-.052a1 1 0 0 0 .854-.702c.044-.148.218-.739.219-1.537 0-.447-.056-.963-.237-1.501-.19-.549-.458-1.032-.658-1.484-.206-.448-.325-.847-.319-1.091.01-.213.031-.313.224-.53.569-.597.936-.876 1.112-.987l.095-.056.023-.011-.231-.548.059.584c.115-.011.172-.036.172-.036l-.231-.548.059.584-.1-.995-.099.995.064-.641-.236.605c.01.004.069.026.172.036l.064-.641-.236.605.01.005c.072.032.473.265 1.219 1.049.193.217.214.317.224.53.006.244-.113.643-.319 1.091l-.658 1.484a4.67 4.67 0 0 0-.237 1.502c.001.799.173 1.384.222 1.543a1 1 0 0 0 .851.695l.954.052c.643-.005 1.34-.063 2.015-.39a2.33 2.33 0 0 0 .913-.781c.246-.362.374-.819.371-1.277a2.89 2.89 0 0 0-.022-.358v-.002l-.993.123" class="B"/><path d="m302.98 159.84 9.175 11.134" class="E"/><path d="M302.21 160.48l9.175 11.134a1 1 0 0 0 1.544-1.272l-9.176-11.134a1 1 0 0 0-1.543 1.272" class="B"/><path d="M277.53 153.43s.619 14.535 2.629 14.69 3.247-1.082 2.474-2.784-1.237-7.731-1.237-7.731 3.092 6.494 6.649 6.958 2.01 6.417 2.01 6.417h4.484v-4.716l3.402 2.01v2.706h3.711s.618-5.026 1.856-6.727 1.237-13.916-1.392-15.153-3.711-6.031-5.258-6.185-3.401-3.865-4.638-7.731-3.788-17.898-10.747-19.174l-2.087-1.74v2.435s-1.044-.231-1.856.232l-1.971-.348.695 2.088s-.463 4.175 0 5.335-.695 5.682-.695 5.682.348 1.044 1.855 1.392 1.856 1.508 1.624 3.363-2.435 7.538-1.971 10.205.306 6.073.463 8.776" class="E"/><path d="M277.53 153.43l-.999.043.566 7.354.832 5.171c.183.735.381 1.367.648 1.899.137.266.289.512.514.739.219.222.556.447.991.481l.41.015c.877-.001 1.687-.221 2.325-.705a2.62 2.62 0 0 0 1.048-2.11 3.37 3.37 0 0 0-.322-1.394c-.126-.267-.306-.933-.447-1.698l-.518-3.728-.138-1.413-.047-.556-.997.077-.903.43c.016.032.807 1.696 2.084 3.461.64.884 1.401 1.794 2.279 2.545.878.745 1.886 1.355 3.059 1.513.326.045.532.139.7.263.246.184.442.482.579.921s.196.984.195 1.531a10.7 10.7 0 0 1-.153 1.724l-.105.549-.034.146-.008.034-.002.007c-.078.3-.013.617.177.863a1 1 0 0 0 .791.388h4.484a1.01 1.01 0 0 0 1-1v-2.964l1.402.829v2.135a1.01 1.01 0 0 0 1 1h3.711a1 1 0 0 0 .993-.878l.027-.206.542-2.976.514-1.83c.191-.551.414-1.013.588-1.248.254-.36.375-.721.495-1.152.171-.641.29-1.428.373-2.329l.126-2.958c-.001-2.041-.16-4.23-.533-6.065-.188-.92-.426-1.751-.754-2.457-.334-.696-.747-1.324-1.481-1.686-.454-.211-.916-.625-1.355-1.182-.662-.833-1.245-1.943-1.82-2.912-.292-.486-.58-.939-.931-1.332a3.06 3.06 0 0 0-.611-.536 1.96 1.96 0 0 0-.867-.313c-.004 0-.062-.009-.168-.075-.186-.11-.486-.391-.798-.812-.475-.63-.992-1.557-1.477-2.627s-.947-2.291-1.343-3.527l-1.211-4.41c-.792-2.846-1.879-6.345-3.474-9.324-.801-1.49-1.729-2.854-2.848-3.941s-2.444-1.896-3.985-2.178l-.181.984.64-.769-2.087-1.739c-.299-.249-.712-.303-1.064-.138s-.576.517-.576.906v2.435h1l.217-.976c-.049-.01-.372-.081-.841-.082s-1.094.065-1.728.422l.496.868.174-.984-1.971-.349c-.346-.06-.702.066-.931.332a1 1 0 0 0-.192.969l.696 2.088.948-.316-.993-.11c-.002.019-.212 1.885-.213 3.546l.05 1.199c.04.378.09.717.228 1.071l.019-.008-.02.006.001.002.019-.008-.02.006c.011.025.041.21.039.454.003.715-.186 1.91-.383 2.877l-.27 1.236-.089.368-.032.13c-.047.184-.04.384.02.565.032.093.174.48.57.919s1.056.914 2.009 1.13c.442.111.58.238.698.403s.218.496.217 1.037a6.86 6.86 0 0 1-.058.825c-.037.309-.181.913-.379 1.628l-1.047 3.844c-.339 1.393-.614 2.791-.618 4.024.001.345.023.68.079 1.005.218 1.245.295 2.723.333 4.228l.118 4.434.998-.058-.999.043.999-.043.999-.058-.116-4.368c-.039-1.541-.115-3.099-.361-4.521-.032-.181-.05-.406-.05-.662-.006-1.238.425-3.129.904-4.872l.69-2.467.434-1.909c.047-.371.074-.728.074-1.073-.002-.762-.128-1.501-.55-2.142s-1.125-1.073-1.915-1.247c-.554-.131-.818-.353-.976-.523l-.148-.203-.019-.038-.366.157.377-.126-.011-.031-.366.157.377-.126-.948.316.968.249.415-1.837c.205-1.033.418-2.267.422-3.271-.006-.409-.022-.777-.181-1.195-.017-.033-.07-.248-.094-.524s-.041-.63-.041-1.003l.1-2.233.07-.791.03-.301c.016-.146.001-.288-.045-.427l-.165-.495.318.056c.232.041.466 0 .671-.116.177-.107.477-.161.735-.159a2.49 2.49 0 0 1 .318.021l.082.013.014.002.072-.358-.079.357.007.001.072-.358-.079.357a1 1 0 0 0 1.217-.977v-.3l.447.373c.134.112.288.184.46.215 1.417.258 2.688 1.186 3.838 2.63 1.722 2.154 3.053 5.39 4.028 8.438l1.24 4.286.868 3.142c.636 1.983 1.425 3.924 2.287 5.446.433.761.882 1.419 1.378 1.941.25.261.512.489.81.672a2.4 2.4 0 0 0 1.017.362l.019-.185-.052.179.033.006.019-.185-.052.179.015-.051-.023.048.008.003.015-.051-.023.048c.008.002.092.053.205.176.202.213.475.62.766 1.115l1.562 2.569c.625.881 1.379 1.739 2.44 2.244.045.005.296.227.52.723.346.731.642 1.944.825 3.313s.274 2.912.274 4.362c0 1.326-.074 2.581-.204 3.556-.064.487-.144.905-.226 1.213a3.08 3.08 0 0 1-.119.365l-.045.1-.017.028c-.417.581-.701 1.283-.954 2.046-.738 2.273-1.079 5.115-1.085 5.147l.992.122v-1h-2.711v-1.706a1 1 0 0 0-.491-.861l-3.402-2.01a1 1 0 0 0-1.005-.007c-.313.178-.504.508-.504.868v3.716h-3.484v1l.968.251c.01-.046.364-1.386.366-2.962-.004-.908-.109-1.907-.566-2.825a3.46 3.46 0 0 0-1.011-1.229c-.45-.338-1.013-.564-1.638-.644-.606-.074-1.317-.449-2.02-1.052-1.055-.896-2.047-2.248-2.745-3.366l-.823-1.417-.218-.419-.054-.11-.016-.032c-.207-.436-.693-.661-1.16-.536s-.777.561-.739 1.043a77.65 77.65 0 0 0 .333 3.273l.399 2.642c.163.843.331 1.569.592 2.153a1.39 1.39 0 0 1 .142.567.6.6 0 0 1-.262.521c-.195.151-.572.296-1.111.295l-.257-.011-.04.528.25-.469-.21-.059-.04.528.25-.469-.119.223.179-.182-.06-.041-.119.223.179-.182c-.015.001-.204-.286-.352-.731-.278-.784-.54-2.036-.75-3.427l-.677-6.416-.15-2.345-.047-.915v-.016l-.999.058" class="B"/><path d="M293.8 139.25s8.211 2.8 18.35-.538" class="E"/><path d="M293.48 140.2c.074.024 3.397 1.152 8.448 1.153 3.01 0 6.635-.402 10.538-1.687a1 1 0 1 0-.626-1.9 31.66 31.66 0 0 1-9.912 1.587c-2.376 0-4.344-.267-5.71-.531-.683-.133-1.215-.264-1.572-.361l-.401-.116-.096-.03-.023-.008a1 1 0 1 0-.646 1.893" class="B"/><use xlink:href="#L" class="D"/><path d="M121.91 257.55v-1h-9.313v-15.625h8.313v16.625h1v-1 1h1v-17.625c0-.263-.106-.521-.293-.707s-.443-.293-.707-.293h-10.313a1.01 1.01 0 0 0-1 1v17.625a1.01 1.01 0 0 0 1 1h10.313c.264 0 .521-.107.707-.293s.293-.444.293-.707h-1" class="B"/><path d="m114.34 242.93v11.358" class="D"/><use xlink:href="#M" class="B"/><path d="m116.75 242.93v11.358" class="D"/><use xlink:href="#M" x="2.41" class="B"/><path d="m119.17 242.93v11.358" class="D"/><use xlink:href="#M" x="4.83" class="B"/><use xlink:href="#L" x="27.72" class="D"/><use xlink:href="#N" class="B"/><path d="m142.06 242.93v11.358" class="D"/><use xlink:href="#M" x="27.72" class="B"/><path d="m144.47 242.93v11.358" class="D"/><use xlink:href="#M" x="30.13" class="B"/><path d="m146.89 242.93v11.358" class="D"/><use xlink:href="#M" x="32.55" class="B"/><use xlink:href="#L" x="55.44" class="D"/><path d="M177.35 257.55v-1h-9.313v-15.625h8.313v16.625h1v-1 1h1v-17.625c0-.263-.106-.521-.293-.707s-.443-.293-.707-.293h-10.313a1.01 1.01 0 0 0-1 1v17.625a1.01 1.01 0 0 0 1 1h10.313c.264 0 .521-.107.707-.293a1.01 1.01 0 0 0 .293-.707h-1" class="B"/><path d="m169.78 242.93v11.358" class="D"/><use xlink:href="#M" x="55.44" class="B"/><path d="m172.19 242.93v11.358" class="D"/><use xlink:href="#M" x="57.85" class="B"/><path d="m174.61 242.93v11.358" class="D"/><use xlink:href="#M" x="60.27" class="B"/><use xlink:href="#L" x="83.16" class="D"/><use xlink:href="#N" x="55.44" class="B"/><path d="m197.5 242.93v11.358" class="D"/><use xlink:href="#M" x="83.16" class="B"/><path d="m199.91 242.93v11.358" class="D"/><use xlink:href="#M" x="85.57" class="B"/><path d="m202.33 242.93v11.358" class="D"/><use xlink:href="#M" x="87.99" class="B"/><use xlink:href="#O" class="D"/><use xlink:href="#P" class="B"/><path d="m234.41 242.93v11.358" class="D"/><use xlink:href="#M" x="120.07" class="B"/><path d="m236.83 242.93v11.358" class="D"/><use xlink:href="#M" x="122.49" class="B"/><path d="m239.24 242.93v11.358" class="D"/><use xlink:href="#M" x="124.9" class="B"/><use xlink:href="#O" x="27.72" class="D"/><path d="M269.7 257.55v-1h-9.314v-15.625h8.314v16.625h1v-1 1h1v-17.625a1.01 1.01 0 0 0-1-1h-10.314a1.01 1.01 0 0 0-1 1v17.625a1.01 1.01 0 0 0 1 1H269.7a1.01 1.01 0 0 0 1-1h-1" class="B"/><path d="m262.13 242.93v11.358" class="D"/><use xlink:href="#M" x="147.79" class="B"/><path d="m264.55 242.93v11.358" class="D"/><use xlink:href="#M" x="150.21" class="B"/><path d="m266.96 242.93v11.358" class="D"/><use xlink:href="#M" x="152.62" class="B"/><use xlink:href="#O" x="55.44" class="D"/><use xlink:href="#P" x="55.44" class="B"/><path d="m289.85 242.93v11.358" class="D"/><use xlink:href="#M" x="175.51" class="B"/><path d="m292.27 242.93v11.358" class="D"/><use xlink:href="#M" x="177.93" class="B"/><path d="m294.68 242.93v11.358" class="D"/><use xlink:href="#M" x="180.34" class="B"/><use xlink:href="#O" x="83.16" class="D"/><use xlink:href="#P" x="83.16" class="B"/><path d="m317.57 242.93v11.358" class="D"/><use xlink:href="#M" x="203.23" class="B"/><path d="m319.99 242.93v11.358" class="D"/><use xlink:href="#M" x="205.65" class="B"/><path d="m322.4 242.93v11.358" class="D"/><use xlink:href="#M" x="208.06" class="B"/><use xlink:href="#O" x="120.08" class="D"/><use xlink:href="#P" x="120.08" class="B"/><path d="m354.49 242.93v11.358" class="D"/><use xlink:href="#M" x="240.15" class="B"/><path d="m356.9 242.93v11.358" class="D"/><use xlink:href="#M" x="242.56" class="B"/><path d="m359.32 242.93v11.358" class="D"/><use xlink:href="#M" x="244.98" class="B"/><use xlink:href="#O" x="147.8" class="D"/><path d="M389.78 257.55v-1h-9.312v-15.625h8.312v16.625h1v-1 1h1v-17.625c0-.263-.106-.521-.293-.707s-.443-.293-.707-.293h-10.312c-.264 0-.521.107-.707.293s-.293.444-.293.707v17.625c0 .263.106.521.293.707s.443.293.707.293h10.312c.264 0 .521-.107.707-.293s.293-.444.293-.707h-1" class="B"/><path d="m382.21 242.93v11.358" class="D"/><use xlink:href="#M" x="267.87" class="B"/><path d="m384.62 242.93v11.358" class="D"/><use xlink:href="#M" x="270.28" class="B"/><path d="m387.04 242.93v11.358" class="D"/><use xlink:href="#M" x="272.7" class="B"/><use xlink:href="#O" x="175.52" class="D"/><path d="M417.5 257.55v-1h-9.314v-15.625h8.314v16.625h1v-1 1h1v-17.625a1.01 1.01 0 0 0-1-1h-10.313a1.01 1.01 0 0 0-.708.293c-.186.186-.292.444-.292.707v17.625c0 .263.106.521.292.707a1.01 1.01 0 0 0 .708.293H417.5a1.01 1.01 0 0 0 1-1h-1" class="B"/><path d="m409.93 242.93v11.358" class="D"/><use xlink:href="#M" x="295.59" class="B"/><path d="m412.34 242.93v11.358" class="D"/><use xlink:href="#M" x="298" class="B"/><path d="m414.76 242.93v11.358" class="D"/><use xlink:href="#M" x="300.42" class="B"/><use xlink:href="#O" x="203.24" class="D"/><use xlink:href="#P" x="203.24" class="B"/><path d="m437.65 242.93v11.358" class="D"/><use xlink:href="#M" x="323.31" class="B"/><path d="m440.06 242.93v11.358" class="D"/><use xlink:href="#M" x="325.72" class="B"/><path d="m442.48 242.93v11.358" class="D"/><use xlink:href="#M" x="328.14" class="B"/><use xlink:href="#L" x="360.23" class="D"/><use xlink:href="#P" x="240.16" class="B"/><path d="m474.57 242.93v11.358" class="D"/><use xlink:href="#M" x="360.23" class="B"/><path d="m476.98 242.93v11.358" class="D"/><use xlink:href="#M" x="362.64" class="B"/><path d="m479.4 242.93v11.358" class="D"/><use xlink:href="#M" x="365.06" class="B"/><use xlink:href="#L" x="387.95" class="D"/><use xlink:href="#N" x="360.23" class="B"/><path d="m502.29 242.93v11.358" class="D"/><use xlink:href="#M" x="387.95" class="B"/><path d="m504.7 242.93v11.358" class="D"/><use xlink:href="#M" x="390.36" class="B"/><path d="m507.12 242.93v11.358" class="D"/><use xlink:href="#M" x="392.78" class="B"/><use xlink:href="#L" x="415.67" class="D"/><path d="M537.58 257.55v-1h-9.314v-15.625h8.314v16.625h1v-1 1h1v-17.625a1.01 1.01 0 0 0-1-1h-10.314a1.01 1.01 0 0 0-.708.293c-.186.186-.292.444-.292.707v17.625c0 .263.106.521.292.707a1.01 1.01 0 0 0 .708.293h10.314a1.01 1.01 0 0 0 1-1h-1" class="B"/><path d="m530.01 242.93v11.358" class="D"/><use xlink:href="#M" x="415.67" class="B"/><path d="m532.42 242.93v11.358" class="D"/><use xlink:href="#M" x="418.08" class="B"/><path d="m534.84 242.93v11.358" class="D"/><use xlink:href="#M" x="420.5" class="B"/><use xlink:href="#L" x="443.39" class="D"/><path d="M565.3 257.55v-1h-9.314v-15.625h8.314v16.625h1v-1 1h1v-17.625a1.01 1.01 0 0 0-1-1h-10.314a1.01 1.01 0 0 0-1 1v17.625a1.01 1.01 0 0 0 1 1H565.3a1.01 1.01 0 0 0 1-1h-1" class="B"/><path d="m557.73 242.93v11.358" class="D"/><use xlink:href="#M" x="443.39" class="B"/><path d="m560.14 242.93v11.358" class="D"/><use xlink:href="#M" x="445.8" class="B"/><path d="m562.56 242.93v11.358" class="D"/><g transform="translate(0 241)"><mask id="s" fill="#fff"><use xlink:href="#A"/></mask><path d="M561.56 1.929v11.358a1 1 0 1 0 2 0V1.929a1 1 0 1 0-2 0M1 231.919h686.72a1 1 0 1 0 0-2H1a1 1 0 1 0 0 2" mask="url(#s)" class="B"/></g><path d="m102.81 482.62h483.1" class="F"/><path d="M102.81 483.62h483.1a1 1 0 1 0 0-2h-483.1a1 1 0 1 0 0 2" class="B"/><path d="M68.388 442.64l-5.621-190.21h-9.333l-5.62 190.21c-.481 12.48-7.38 29.42-7.38 29.42h35.333s-6.899-16.94-7.379-29.42" class="C"/><path d="M68.388 442.64l.999-.038-2.99-99.778-1.82-62.461-.589-20.304-.164-5.663-.057-1.999a1 1 0 0 0-1-.971h-9.333a1 1 0 0 0-1 .971l-.057 1.999-5.563 188.21c-.23 6.079-2.052 13.385-3.826 19.134a145.01 145.01 0 0 1-2.407 7.138l-.782 2.071-.216.551-.075.187a1 1 0 0 0 .926 1.377h35.333a1 1 0 0 0 .83-.442c.187-.278.222-.626.096-.935l-.075-.187c-.372-.934-2.076-5.292-3.737-10.856s-3.278-12.34-3.494-18.038l-.999.038-1 .038c.25 6.402 2.117 13.806 3.914 19.646s3.532 10.095 3.539 10.113l.926-.377v-1H40.434v1l.926.377c.008-.018 1.742-4.276 3.54-10.113s3.663-13.244 3.913-19.646l5.621-190.22-1-.029v1h9.333v-1l-.999.029c0 .004 5.14 177.72 5.62 190.22l1-.038" class="B"/><path d="M53.601 247.43h9v-7.75h-9z" class="C"/><path d="M62.601 247.43v-1h-8v-5.75h7v6.75h1v-1 1h1v-7.75a1.01 1.01 0 0 0-1-1h-9c-.264 0-.521.107-.707.293s-.293.444-.293.707v7.75c0 .263.106.521.293.707s.443.293.707.293h9a1.01 1.01 0 0 0 1-1h-1" class="B"/><path d="M65.267 211.18H50.934l1.167-29.09h12l1.166 29.09" class="D"/><path d="M65.267 211.18v-1H51.975l1.086-27.083H63.14l1.128 28.123.999-.04v-1 1l.999-.04-1.166-29.083a1 1 0 0 0-.999-.96h-12a1 1 0 0 0-1 .96l-1.166 29.083a1 1 0 0 0 .278.733c.188.195.45.307.721.307h14.333c.271 0 .533-.112.721-.307a1 1 0 0 0 .278-.733l-.999.04" class="B"/><g class="D"><use xlink:href="#Q"/><use xlink:href="#Q"/></g><path d="M66.601 249.51h-1c-.002.112-.039.255-.227.475-.275.324-.894.719-1.737.992s-1.899.451-3.036.45h-5c-1.517.003-2.891-.31-3.801-.756-.455-.22-.788-.472-.973-.686-.188-.22-.225-.363-.226-.475s.038-.254.226-.474c.275-.324.894-.719 1.738-.992s1.898-.451 3.036-.45h5c1.516-.003 2.89.31 3.8.756.455.22.788.472.973.686.188.22.225.362.227.474h2c.001-.69-.3-1.313-.721-1.79-.639-.721-1.546-1.218-2.618-1.576s-2.324-.549-3.661-.55h-5c-1.784.003-3.41.346-4.675.957-.632.309-1.18.686-1.605 1.169-.421.477-.722 1.1-.72 1.79s.299 1.314.72 1.791c.639.721 1.546 1.218 2.618 1.576s2.324.549 3.662.55h5c1.783-.003 3.409-.346 4.674-.957.632-.309 1.181-.686 1.605-1.169.421-.477.722-1.101.721-1.791h-1" class="B"/><path d="M60.184 182.09h-4.5l2.25-109.414 2.25 109.414" class="E"/><path d="M60.184 182.09v-1h-3.479l1.229-59.777 1.25 60.798 1-.021v-1 1l1-.02-2.25-109.42c-.011-.543-.457-.98-1-.98s-.989.437-1 .98l-2.25 109.42a1.01 1.01 0 0 0 .286.72c.187.191.447.3.714.3h4.5c.267 0 .528-.109.714-.3a1.01 1.01 0 0 0 .286-.72l-1 .02" class="B"/><path d="M53.768 168.43h8.667v-3h-8.667z" class="F"/><path d="M62.434 168.43v-1h-7.666v-1h6.666v2h1v-1 1h1v-3a1.01 1.01 0 0 0-1-1h-8.666c-.264 0-.521.107-.707.293s-.293.444-.293.707v3c0 .263.106.521.293.707s.443.293.707.293h8.666a1.01 1.01 0 0 0 1-1h-1" class="B"/><path d="M53.768 135.09h8.667v-3h-8.667z" class="F"/><path d="M62.434 135.09v-1h-7.666v-1h6.666v2h1v-1 1h1v-3c0-.264-.107-.521-.293-.707s-.444-.293-.707-.293h-8.666a1 1 0 0 0-1 1v3c0 .263.106.521.293.707s.443.293.707.293h8.666a1.01 1.01 0 0 0 1-1h-1" class="B"/><path d="M53.768 110.76h8.667v-3h-8.667z" class="F"/><path d="M62.434 110.76v-1h-7.666v-1h6.666v2h1v-1 1h1v-3a1.01 1.01 0 0 0-1-1h-8.666c-.264 0-.521.107-.707.293s-.293.444-.293.707v3c0 .263.106.521.293.707s.443.293.707.293h8.666a1.01 1.01 0 0 0 1-1h-1M52.05 190.552h11.759a1 1 0 1 0 0-2H52.05a1 1 0 1 0 0 2m0 7.083h11.759a1 1 0 1 0 0-2H52.05a1 1 0 1 0 0 2" class="B"/><path d="M75.684 223.84c0-9.711-7.873-17.584-17.583-17.584s-17.584 7.873-17.584 17.584c0 1.229.128 2.426.367 3.583h34.433c.239-1.157.367-2.354.367-3.583" class="E"/><path d="M75.684 223.84h1a18.59 18.59 0 0 0-18.583-18.584 18.59 18.59 0 0 0-18.584 18.584c0 1.298.135 2.564.388 3.786a1 1 0 0 0 .979.797h34.433a1 1 0 0 0 .979-.797c.253-1.222.388-2.488.388-3.786h-2a16.67 16.67 0 0 1-.346 3.381l.979.202v-1H40.884v1l.98-.202a16.67 16.67 0 0 1-.347-3.381 16.53 16.53 0 0 1 16.584-16.584c4.582.001 8.722 1.855 11.726 4.858s4.857 7.144 4.857 11.726h1" class="B"/><path d="M58.101 241.43c5.87 0 11.054-2.888 14.248-7.308H43.852c3.194 4.42 8.378 7.308 14.249 7.308" class="C"/><path d="M58.101 241.43v1c6.204 0 11.688-3.055 15.059-7.723a1 1 0 0 0-.811-1.585H43.852c-.376 0-.719.209-.89.544s-.141.736.08 1.041c3.37 4.668 8.855 7.723 15.059 7.723v-2c-5.538 0-10.421-2.721-13.438-6.894l-.811.586v1h28.497v-1l-.811-.586c-3.017 4.173-7.9 6.894-13.437 6.894v1" class="B"/><path d="M40.884 227.43c.51 2.462 1.547 4.724 2.968 6.692h28.497a17.47 17.47 0 0 0 2.968-6.692H40.884" class="G"/><path d="M40.884 227.43l-.979.203c.54 2.607 1.637 4.999 3.136 7.074a1 1 0 0 0 .811.415h28.497a1 1 0 0 0 .811-.415c1.499-2.075 2.596-4.467 3.136-7.074a1 1 0 0 0-.979-1.203H40.884a1 1 0 0 0-.979 1.203l.979-.203v1h34.433v-1l-.979-.203c-.48 2.317-1.456 4.449-2.8 6.309l.811.586v-1H43.852v1l.811-.586c-1.344-1.86-2.32-3.992-2.8-6.309l-.979.203v1-1" class="B"/><path d="M151.25 370.19h471.17v-6.96H151.25z" class="F"/><use xlink:href="#R" class="B"/><path d="M151.25 363.23h471.17v-6.97H151.25z" class="D"/><use xlink:href="#R" y="-6.97" class="B"/><path d="M151.25 470.49h471.17v-100.3H151.25z" class="G"/><path d="M622.42 470.49v-1H152.25v-98.302h469.17v99.302h1v-1 1h1v-100.3c0-.264-.107-.521-.293-.707a1.01 1.01 0 0 0-.707-.293H151.25c-.264 0-.521.107-.707.293a1 1 0 0 0-.293.707v100.3c0 .263.106.52.293.707s.443.293.707.293h471.17a1.01 1.01 0 0 0 1-1h-1" class="B"/><path d="m385.4 305.94c-40.303 0-42.268 27.483-42.268 27.483h84.538s-1.965-27.483-42.27-27.483" class="C"/><path d="M385.4 305.94v-1c-10.188 0-18.012 1.738-24.01 4.379-9.002 3.958-13.852 9.957-16.401 14.953-2.555 4.999-2.847 8.99-2.855 9.08-.02.278.076.549.266.753a1 1 0 0 0 .732.318h84.538a1 1 0 0 0 .997-1.071c-.011-.115-.523-7.186-6.239-14.297-2.856-3.552-7.018-7.097-13.017-9.736s-13.822-4.379-24.011-4.379v2c9.964 0 17.5 1.697 23.205 4.209 8.555 3.772 13.035 9.367 15.427 14.034 1.193 2.332 1.856 4.432 2.219 5.938a20.49 20.49 0 0 1 .348 1.769c.03.205.049.362.06.465l.011.112.002.028.998-.072v-1h-84.538v1l.997.072.001-.009c.022-.299.645-6.963 6.055-13.489 2.707-3.267 6.607-6.516 12.28-8.965s13.128-4.092 22.935-4.092v-1" class="B"/><path d="M316.34 338.42h138.13v-5H316.34z" class="F"/><path d="M454.47 338.42v-1H317.33v-2.998h136.14v3.998h1v-1 1h1v-4.998a1.01 1.01 0 0 0-1-1H316.33a1.01 1.01 0 0 0-1 1v4.998c0 .264.107.521.293.707s.444.293.707.293h138.14c.263 0 .521-.106.707-.293s.293-.443.293-.707h-1" class="B"/><path d="M320.08 353.05h130.65v-14.63H320.08z" class="C"/><path d="M450.73 353.05v-1H321.09v-12.635h128.64v13.635h1v-1 1h1v-14.635a1.01 1.01 0 0 0-1-1H320.09a1.01 1.01 0 0 0-.708.293c-.186.186-.292.444-.292.707v14.635c0 .263.106.521.292.707a1.01 1.01 0 0 0 .708.293h130.64a1.01 1.01 0 0 0 1-1h-1" class="B"/><path d="M224.3 470.49h325.06v-100.3H224.3z" class="E"/><path fill="#a33b3c" d="M333.94 470.49h103.94v-98.87H333.94z"/><path d="M225.73 469.06h322.2v-97.446h-322.2v97.446zm323.63 2.855H224.3c-.79 0-1.428-.638-1.428-1.427v-100.3c0-.79.638-1.429 1.428-1.429h325.06a1.43 1.43 0 0 1 1.428 1.429v100.3c0 .789-.639 1.427-1.428 1.427z" class="B"/><use xlink:href="#S" class="E"/><g class="B"><path d="M340.43 464.42v-1h-9.35v-96.16h8.35v97.16h1v-1 1h1v-98.16a1.01 1.01 0 0 0-1-1h-10.35a1.01 1.01 0 0 0-1 1v98.16c0 .264.107.521.293.707s.444.293.707.293h10.35c.263 0 .521-.106.707-.293s.293-.443.293-.707h-1"/><use xlink:href="#T"/></g><use xlink:href="#U" class="C"/><path d="M344.24 366.26v-1h-17.087v-4.068h16.087v5.068h1v-1 1h1v-6.068a1 1 0 0 0-1-1h-18.087c-.263 0-.52.106-.707.293s-.293.443-.293.707v6.068a1.01 1.01 0 0 0 1 1h18.087c.264 0 .521-.107.707-.293s.293-.444.293-.707h-1" class="B"/><use xlink:href="#U" y="104.23" class="C"/><path d="M344.24 470.49v-1h-17.087v-4.069h16.087v5.069h1v-1 1h1v-6.069c0-.263-.106-.521-.293-.707s-.443-.293-.707-.293h-18.087a1.01 1.01 0 0 0-1 1v6.069a1.01 1.01 0 0 0 1 1h18.087c.264 0 .521-.107.707-.293s.293-.444.293-.707h-1" class="B"/><use xlink:href="#S" x="-165.62" class="E"/><g class="B"><path d="M174.81 464.42v-1h-9.351v-96.16h8.351v97.16h1v-1 1h1v-98.16a1.01 1.01 0 0 0-1-1h-10.351c-.264 0-.521.107-.707.293s-.293.444-.293.707v98.16a1 1 0 0 0 1 1h10.351c.263 0 .521-.106.707-.293s.293-.443.293-.707h-1"/><use xlink:href="#T" x="-165.62"/></g><use xlink:href="#V" class="C"/><use xlink:href="#W" class="B"/><use xlink:href="#V" y="104.23" class="C"/><use xlink:href="#X" class="B"/><use xlink:href="#S" x="-125.7" class="E"/><g class="B"><path d="M214.73 464.42v-1h-9.351v-96.16h8.351v97.16h1v-1 1h1v-98.16a1.01 1.01 0 0 0-1-1h-10.351a1.01 1.01 0 0 0-.708.293c-.186.186-.292.444-.292.707v98.16c0 .264.106.521.292.707s.444.293.708.293h10.351c.263 0 .52-.106.707-.293s.293-.443.293-.707h-1"/><use xlink:href="#T" x="-125.7"/></g><use xlink:href="#V" x="39.92" class="C"/><use xlink:href="#Y" class="B"/><use xlink:href="#V" x="39.92" y="104.23" class="C"/><use xlink:href="#Z" class="B"/><path d="M432.7 464.42h10.35v-98.16H432.7z" class="E"/><g class="B"><use xlink:href="#a"/><use xlink:href="#T" x="102.63"/></g><use xlink:href="#U" x="102.62" class="C"/><path d="M446.86 366.26v-1h-17.085v-4.068h16.085v5.068h1v-1 1h1v-6.068a1 1 0 0 0-1-1h-18.085c-.263 0-.52.106-.707.293s-.293.443-.293.707v6.068a1.01 1.01 0 0 0 1 1h18.085c.264 0 .521-.107.707-.293s.293-.444.293-.707h-1" class="B"/><use xlink:href="#U" x="102.62" y="104.23" class="C"/><path d="M446.86 470.49v-1h-17.085v-4.069h16.085v5.069h1v-1 1h1v-6.069c0-.263-.106-.521-.293-.707s-.443-.293-.707-.293h-18.085a1.01 1.01 0 0 0-1 1v6.069a1.01 1.01 0 0 0 1 1h18.085c.264 0 .521-.107.707-.293s.293-.444.293-.707h-1" class="B"/><path d="M407.04 464.42h10.36v-98.16h-10.36z" class="E"/><g class="B"><path d="M417.4 464.42v-1h-9.351v-96.16h8.351v97.16h1v-1 1h1v-98.16a1.01 1.01 0 0 0-1-1h-10.351a1.01 1.01 0 0 0-1 1v98.16c0 .264.107.521.293.707s.444.293.707.293H417.4c.263 0 .52-.106.707-.293s.293-.443.293-.707h-1"/><use xlink:href="#T" x="76.97"/></g><use xlink:href="#V" x="242.59" class="C"/><path d="M421.2 366.26v-1h-17.085v-4.068H420.2v5.068h1v-1 1h1v-6.068c0-.264-.107-.521-.293-.707s-.444-.293-.707-.293h-18.085c-.263 0-.521.106-.707.293s-.293.443-.293.707v6.068a1.01 1.01 0 0 0 1 1H421.2a1.01 1.01 0 0 0 1-1h-1" class="B"/><use xlink:href="#V" x="242.59" y="104.23" class="C"/><path d="M421.2 470.49v-1h-17.085v-4.069H420.2v5.069h1v-1 1h1v-6.069a1.01 1.01 0 0 0-1-1h-18.085a1.01 1.01 0 0 0-1 1v6.069a1.01 1.01 0 0 0 1 1H421.2a1.01 1.01 0 0 0 1-1h-1" class="B"/><use xlink:href="#S" x="51.31" class="E"/><g class="B"><path d="M391.74 464.42v-1h-9.351v-96.16h8.351v97.16h1v-1 1h1v-98.16c0-.263-.106-.521-.293-.707s-.443-.293-.707-.293h-10.351c-.264 0-.521.107-.707.293s-.293.444-.293.707v98.16a1 1 0 0 0 1 1h10.351a1 1 0 0 0 1-1h-1"/><use xlink:href="#T" x="51.31"/></g><use xlink:href="#U" x="51.31" class="C"/><use xlink:href="#W" x="216.94" class="B"/><use xlink:href="#U" x="51.31" y="104.23" class="C"/><use xlink:href="#X" x="216.94" class="B"/><path d="M355.73 464.42h10.36v-98.16h-10.36z" class="E"/><g class="B"><use xlink:href="#a" x="-76.96"/><use xlink:href="#T" x="25.66"/></g><use xlink:href="#V" x="191.28" class="C"/><path d="M369.89 366.26v-1h-17.085v-4.068h16.085v5.068h1v-1 1h1v-6.068c0-.264-.107-.521-.293-.707s-.444-.293-.707-.293h-18.085a1 1 0 0 0-1 1v6.068c0 .263.106.521.293.707s.443.293.707.293h18.085a1.01 1.01 0 0 0 1-1h-1" class="B"/><use xlink:href="#V" x="191.28" y="104.23" class="C"/><path d="M369.89 470.49v-1h-17.085v-4.069h16.085v5.069h1v-1 1h1v-6.069a1.01 1.01 0 0 0-1-1h-18.085c-.264 0-.521.107-.707.293s-.293.444-.293.707v6.069c0 .263.106.521.293.707s.443.293.707.293h18.085a1.01 1.01 0 0 0 1-1h-1" class="B"/><path d="M320.08 360.19h130.65v-7.14H320.08z" class="D"/><path d="M450.73 360.19v-1H321.09v-5.139h128.64v6.139h1v-1 1h1v-7.139a1.01 1.01 0 0 0-1-1H320.09a1.01 1.01 0 0 0-.708.293c-.186.186-.292.444-.292.707v7.139c0 .263.106.521.292.707a1.01 1.01 0 0 0 .708.293h130.64a1.01 1.01 0 0 0 1-1h-1" class="B"/><path d="M386.83 323.78l-72.1 29.27h139.92l-67.82-29.27" class="G"/><path d="M386.83 323.78l-.376-.927-72.104 29.271a1 1 0 0 0-.605 1.118c.091.468.505.808.982.808h139.92a1 1 0 0 0 .397-1.918l-67.819-29.271a1.01 1.01 0 0 0-.772-.008l.376.927-.396.918 63.374 27.352h-129.96l67.358-27.344-.376-.926-.396.918.396-.918" class="B"/><path d="M385.86 330.44l-39.34 15.96h76.34l-37-15.96" class="D"/><path d="M385.86 330.44l-.376-.927-39.337 15.968c-.442.18-.696.65-.605 1.118s.505.809.981.809h76.337a1 1 0 0 0 .397-1.918l-37-15.968c-.246-.106-.525-.109-.773-.009l.376.927-.396.918 32.555 14.05h-66.373l34.591-14.042-.377-.926-.396.918.396-.918" class="B"/><path d="M320.82 333.42h18.38v-6.78h-18.38z" class="D"/><path d="M339.2 333.42v-1h-17.383v-4.781H338.2v5.781h1v-1 1h1v-6.781a1.01 1.01 0 0 0-1-1h-18.383a1.01 1.01 0 0 0-1 1v6.781c0 .264.107.521.293.707s.444.293.707.293H339.2c.263 0 .521-.106.707-.293s.293-.443.293-.707h-1" class="B"/><path d="M320.82 326.46h18.38V322h-18.38z" class="G"/><path d="M339.2 326.46v-1h-17.383V323H338.2v3.46h1v-1 1h1V322a1.01 1.01 0 0 0-1-1h-18.383a1.01 1.01 0 0 0-1 1v4.46c0 .264.107.521.293.707s.444.293.707.293H339.2c.263 0 .521-.106.707-.293s.293-.443.293-.707h-1" class="B"/><path d="M326.09 322h7.85v-15.04h-7.85z" class="E"/><path d="M333.94 322v-1h-6.853v-13.043h5.853V322h1v-1 1h1v-15.043a1.01 1.01 0 0 0-1-1h-7.853a1.01 1.01 0 0 0-1 1V322c0 .264.107.521.293.707s.444.293.707.293h7.853c.264 0 .521-.106.708-.293s.292-.443.292-.707h-1" class="B"/><path d="m330.01 294.23c-2.17 0-3.926 1.758-3.926 3.927v8.797h7.853v-8.797c0-2.169-1.756-3.927-3.927-3.927" class="F"/><path d="M330.01 294.23v-1c-2.722 0-4.926 2.206-4.926 4.927v8.797a1.01 1.01 0 0 0 .293.708c.186.186.444.292.707.292h7.853a1.01 1.01 0 0 0 1-1v-8.797c0-2.722-2.204-4.927-4.927-4.927v2a2.93 2.93 0 0 1 2.927 2.927v7.797h-5.853v-7.797a2.93 2.93 0 0 1 2.926-2.927v-1" class="B"/><path d="M432.03 333.42h18.39v-6.78h-18.39z" class="D"/><path d="M450.42 333.42v-1h-17.384v-4.781h16.384v5.781h1v-1 1h1v-6.781a1.01 1.01 0 0 0-1-1h-18.384a1.01 1.01 0 0 0-1 1v6.781c0 .264.107.521.293.707s.444.293.707.293h18.384c.263 0 .521-.106.707-.293s.293-.443.293-.707h-1" class="B"/><path d="M432.03 326.46h18.39V322h-18.39z" class="G"/><path d="M450.42 326.46v-1h-17.384V323h16.384v3.46h1v-1 1h1V322a1.01 1.01 0 0 0-1-1h-18.384a1.01 1.01 0 0 0-1 1v4.46c0 .264.107.521.293.707s.444.293.707.293h18.384c.263 0 .521-.106.707-.293s.293-.443.293-.707h-1" class="B"/><path d="M437.3 322h7.85v-15.04h-7.85z" class="E"/><path d="M445.15 322v-1h-6.851v-13.043h5.851V322h1v-1 1h1v-15.043c0-.263-.106-.52-.293-.707s-.443-.293-.707-.293h-7.851c-.264 0-.521.107-.707.293s-.293.444-.293.707V322c0 .264.107.521.293.707a1 1 0 0 0 .707.293h7.851a1 1 0 0 0 1-1h-1" class="B"/><path d="m441.23 294.23c-2.17 0-3.926 1.758-3.926 3.927v8.797h7.851v-8.797c0-2.169-1.755-3.927-3.925-3.927" class="F"/><path d="M441.23 294.23v-1c-2.723 0-4.926 2.206-4.926 4.927v8.797a1.01 1.01 0 0 0 .293.708c.186.186.443.292.707.292h7.851c.264 0 .521-.106.707-.292s.293-.444.293-.708v-8.797c0-2.721-2.203-4.927-4.925-4.927v2a2.93 2.93 0 0 1 2.925 2.927v7.797h-5.851v-7.797a2.93 2.93 0 0 1 2.926-2.927v-1" class="B"/><path d="M323.06 405.17a4.76 4.76 0 1 0-9.52 0v21.417h9.519l.001-21.417" class="C"/><path d="M323.06 405.17h1a5.76 5.76 0 1 0-11.52 0v21.417c0 .264.107.521.293.707s.444.293.707.293h9.519c.263 0 .521-.106.707-.293s.293-.443.293-.707v-21.403h-1l.997.071.001-.013.003-.072h-1l-.998-.071-.001.014-.002.071v20.403h-7.519V405.17c.001-1.04.419-1.974 1.101-2.658s1.616-1.101 2.658-1.101a3.74 3.74 0 0 1 2.659 1.101c.682.684 1.101 1.618 1.102 2.658h1l-.998-.071.998.071" class="B"/><path d="m313.54 409.21h9.519" class="C"/><use xlink:href="#b" class="B"/><path d="m313.54 418.37h9.519" class="C"/><use xlink:href="#b" y="9.16" class="B"/><path d="M303.19 405.17a4.76 4.76 0 0 0-4.759-4.759 4.76 4.76 0 0 0-4.76 4.759v21.417h9.519V405.17" class="C"/><path d="M303.19 405.17h1a5.76 5.76 0 0 0-5.759-5.759 5.76 5.76 0 0 0-5.76 5.759v21.417c0 .264.107.521.293.707s.444.293.707.293h9.519c.263 0 .52-.106.707-.293s.292-.443.292-.707v-21.403h-.999l.997.071.001-.013.002-.072h-1l-.997-.071-.001.014-.002.071v20.403h-7.519V405.17c0-1.04.419-1.974 1.101-2.658a3.74 3.74 0 0 1 5.317 0c.682.684 1.101 1.618 1.101 2.658h1l-.997-.071.997.071" class="B"/><path d="m293.67 409.21h9.519" class="C"/><use xlink:href="#b" x="-19.87" class="B"/><path d="m293.67 418.37h9.519" class="C"/><use xlink:href="#b" x="-19.87" y="9.16" class="B"/><path d="M283.32 405.17a4.76 4.76 0 1 0-9.521 0v21.417h9.519l.002-21.417" class="C"/><path d="M283.32 405.17h1a5.76 5.76 0 1 0-11.521 0v21.417c0 .264.107.521.293.707s.444.293.707.293h9.519c.263 0 .521-.106.707-.293s.293-.443.293-.707v-21.403h-1l.984.176.003-.014.015-.176h-1l-.984-.175-.003.013-.015.176v20.403h-7.519V405.17c.001-1.04.419-1.974 1.101-2.658s1.618-1.101 2.66-1.101 1.975.419 2.659 1.101 1.101 1.618 1.101 2.658h1l-.984-.175.984.175" class="B"/><path d="m273.8 409.21h9.519" class="C"/><use xlink:href="#c" class="B"/><path d="m273.8 418.37h9.519" class="C"/><use xlink:href="#c" y="9.16" class="B"/><path d="M263.45 405.17c0-2.627-2.132-4.759-4.761-4.759a4.76 4.76 0 0 0-4.76 4.759v21.417h9.52l.001-21.417" class="C"/><path d="M263.45 405.17h1c-.001-3.18-2.579-5.758-5.761-5.759a5.76 5.76 0 0 0-5.76 5.759v21.417c0 .264.107.521.293.707s.444.293.707.293h9.52c.263 0 .521-.106.707-.293s.293-.443.293-.707v-21.403h-1l.997.071.001-.013.003-.072h-1l-.998-.071-.001.014-.002.071v20.403h-7.52V405.17c.001-1.04.419-1.974 1.101-2.658s1.618-1.101 2.659-1.101 1.975.419 2.659 1.101 1.101 1.618 1.102 2.658h1l-.998-.071.998.071" class="B"/><path d="m253.93 409.21h9.52" class="C"/><use xlink:href="#d" class="B"/><path d="m253.93 418.37h9.52" class="C"/><use xlink:href="#d" y="9.16" class="B"/><path d="M243.58 405.17c0-2.627-2.132-4.759-4.761-4.759a4.76 4.76 0 0 0-4.76 4.759v21.417h9.519l.002-21.417" class="C"/><path d="M243.58 405.17h1c-.001-3.18-2.579-5.758-5.761-5.759a5.76 5.76 0 0 0-5.76 5.759v21.417c0 .264.107.521.293.707s.444.293.707.293h9.519c.263 0 .521-.106.707-.293s.293-.443.293-.707v-21.403h-1l.994.107.002-.014.006-.107h-1l-.995-.106-.001.013-.006.107v20.403h-7.519V405.17c.001-1.04.419-1.974 1.101-2.658s1.618-1.101 2.659-1.101 1.975.419 2.659 1.101 1.101 1.618 1.102 2.658h1l-.995-.106.995.106" class="B"/><path d="m234.06 409.21h9.519" class="C"/><use xlink:href="#b" x="-79.48" class="B"/><path d="m234.06 418.37h9.519" class="C"/><use xlink:href="#b" x="-79.48" y="9.16" class="B"/><use xlink:href="#e" class="C"/><use xlink:href="#f" class="B"/><path d="m314.13 385.54h8.33" class="C"/><use xlink:href="#g" class="B"/><use xlink:href="#e" x="-19.87" class="C"/><use xlink:href="#h" class="B"/><path d="m294.26 385.54h8.329" class="C"/><use xlink:href="#i" class="B"/><use xlink:href="#e" x="-39.74" class="C"/><use xlink:href="#j" class="B"/><path d="m274.39 385.54h8.33" class="C"/><use xlink:href="#g" x="-39.74" class="B"/><use xlink:href="#e" x="-59.61" class="C"/><use xlink:href="#j" x="-19.87" class="B"/><path d="m254.52 385.54h8.33" class="C"/><use xlink:href="#g" x="-59.61" class="B"/><use xlink:href="#e" x="-79.48" class="C"/><use xlink:href="#k" class="B"/><path d="m234.65 385.54h8.33" class="C"/><use xlink:href="#g" x="-79.48" class="B"/><use xlink:href="#l" class="C"/><use xlink:href="#f" y="57.7" class="B"/><path d="m314.13 443.24h8.33" class="C"/><use xlink:href="#g" y="57.7" class="B"/><use xlink:href="#l" x="-19.87" class="C"/><use xlink:href="#h" y="57.7" class="B"/><path d="m294.26 443.24h8.329" class="C"/><use xlink:href="#i" y="57.7" class="B"/><use xlink:href="#l" x="-39.74" class="C"/><use xlink:href="#j" y="57.7" class="B"/><path d="m274.39 443.24h8.33" class="C"/><use xlink:href="#g" x="-39.74" y="57.7" class="B"/><use xlink:href="#l" x="-59.61" class="C"/><use xlink:href="#j" x="-19.87" y="57.7" class="B"/><path d="m254.52 443.24h8.33" class="C"/><use xlink:href="#g" x="-59.61" y="57.7" class="B"/><use xlink:href="#l" x="-79.48" class="C"/><use xlink:href="#k" y="57.7" class="B"/><path d="m234.65 443.24h8.33" class="C"/><use xlink:href="#g" x="-79.48" y="57.7" class="B"/><use xlink:href="#m" class="C"/><path d="M539.41 405.17h1a5.76 5.76 0 0 0-11.52 0v21.417c0 .264.106.521.292.707s.444.293.708.293h9.519c.263 0 .521-.106.707-.293s.293-.443.293-.707v-21.403h-1l.998.071v-.013l.003-.072h-1l-.997-.071-.001.014-.003.071v20.403h-7.52V405.17c.001-1.04.42-1.974 1.102-2.658a3.74 3.74 0 0 1 2.659-1.101c1.041 0 1.975.419 2.659 1.101s1.101 1.618 1.101 2.658h1l-.997-.071.997.071" class="B"/><path d="m529.89 409.21h9.519" class="C"/><use xlink:href="#b" x="216.35" class="B"/><path d="m529.89 418.37h9.519" class="C"/><use xlink:href="#b" x="216.35" y="9.16" class="B"/><use xlink:href="#m" x="-19.87" class="C"/><path d="M519.54 405.17h1c-.001-3.18-2.579-5.758-5.76-5.759a5.76 5.76 0 0 0-5.76 5.759v21.417c0 .264.107.521.293.707s.444.293.707.293h9.519c.263 0 .521-.106.707-.293s.293-.443.293-.707v-21.403h-1l.997.071.001-.013.003-.072h-1l-.998-.071-.001.014-.002.071v20.403h-7.519V405.17c.001-1.04.419-1.974 1.101-2.658a3.74 3.74 0 0 1 5.317 0c.683.684 1.101 1.618 1.102 2.658h1l-.998-.071.998.071" class="B"/><path d="m510.02 409.21h9.519" class="C"/><use xlink:href="#b" x="196.48" class="B"/><path d="m510.02 418.37h9.519" class="C"/><use xlink:href="#b" x="196.48" y="9.16" class="B"/><path d="M499.68 405.17a4.76 4.76 0 1 0-9.521 0v21.417h9.52l.001-21.417" class="C"/><path d="M499.68 405.17h1c-.001-3.18-2.579-5.758-5.76-5.759a5.76 5.76 0 0 0-5.761 5.759v21.417c0 .264.107.521.293.707s.444.293.707.293h9.52c.263 0 .521-.106.707-.293s.293-.443.293-.707v-21.403h-1l.997.071.001-.013.003-.072h-1l-.998-.071-.001.014-.002.071v20.403h-7.52V405.17c.001-1.04.419-1.974 1.102-2.658a3.74 3.74 0 0 1 5.317 0c.682.684 1.101 1.618 1.102 2.658h1l-.998-.071.998.071" class="B"/><path d="m490.16 409.21h9.52" class="C"/><use xlink:href="#d" x="236.23" class="B"/><path d="m490.16 418.37h9.52" class="C"/><use xlink:href="#d" x="236.23" y="9.16" class="B"/><path d="M479.81 405.17c0-2.627-2.132-4.759-4.761-4.759s-4.761 2.132-4.761 4.759v21.417h9.521l.001-21.417" class="C"/><path d="M479.81 405.17h1c-.001-3.18-2.579-5.758-5.761-5.759s-5.76 2.579-5.761 5.759v21.417c0 .264.107.521.293.707s.444.293.707.293h9.521c.263 0 .521-.106.707-.293s.293-.443.293-.707v-21.403h-1l.997.071.001-.013.003-.072h-1l-.998-.071-.001.014-.002.071v20.403h-7.521V405.17c.001-1.04.419-1.974 1.102-2.658s1.618-1.101 2.659-1.101 1.975.419 2.659 1.101 1.101 1.618 1.102 2.658h1l-.998-.071.998.071" class="B"/><path d="m470.29 409.21h9.521" class="C"/><use xlink:href="#n" class="B"/><path d="m470.29 418.37h9.521" class="C"/><use xlink:href="#n" y="9.16" class="B"/><path d="M459.94 405.17c0-2.627-2.133-4.759-4.761-4.759a4.76 4.76 0 0 0-4.76 4.759v21.417h9.52l.001-21.417" class="C"/><path d="M459.94 405.17h.999c-.001-3.18-2.579-5.758-5.76-5.759s-5.759 2.579-5.76 5.759v21.417c0 .264.107.521.293.707s.444.293.707.293h9.52c.263 0 .52-.106.707-.293s.293-.443.293-.707v-21.403h-1l.997.071.001-.013.002-.072h-.999l-.998-.071-.001.014-.002.071v20.403h-7.52V405.17a3.74 3.74 0 0 1 3.76-3.759c1.04 0 1.974.419 2.659 1.102s1.101 1.617 1.102 2.657h1l-.998-.071.998.071" class="B"/><path d="m450.42 409.21h9.52" class="C"/><use xlink:href="#d" x="196.49" class="B"/><path d="m450.42 418.37h9.52" class="C"/><use xlink:href="#d" x="196.49" y="9.16" class="B"/><use xlink:href="#e" x="216.36" class="C"/><use xlink:href="#o" class="B"/><path d="m530.49 385.54h8.329" class="C"/><use xlink:href="#i" x="236.23" class="B"/><use xlink:href="#e" x="196.49" class="C"/><use xlink:href="#p" class="B"/><path d="m510.62 385.54h8.33" class="C"/><use xlink:href="#g" x="196.49" class="B"/><use xlink:href="#e" x="176.62" class="C"/><use xlink:href="#q" class="B"/><path d="m490.75 385.54h8.329" class="C"/><use xlink:href="#i" x="196.49" class="B"/><use xlink:href="#e" x="156.75" class="C"/><use xlink:href="#j" x="196.49" class="B"/><path d="m470.88 385.54h8.33" class="C"/><use xlink:href="#g" x="156.75" class="B"/><use xlink:href="#e" x="136.88" class="C"/><use xlink:href="#q" x="-39.74" class="B"/><path d="m451.01 385.54h8.329" class="C"/><use xlink:href="#i" x="156.75" class="B"/><use xlink:href="#l" x="216.36" class="C"/><use xlink:href="#o" y="57.7" class="B"/><path d="m530.49 443.24h8.329" class="C"/><use xlink:href="#i" x="236.23" y="57.7" class="B"/><use xlink:href="#l" x="196.49" class="C"/><use xlink:href="#p" y="57.7" class="B"/><path d="m510.62 443.24h8.33" class="C"/><use xlink:href="#g" x="196.49" y="57.7" class="B"/><use xlink:href="#l" x="176.62" class="C"/><use xlink:href="#q" y="57.7" class="B"/><path d="m490.75 443.24h8.329" class="C"/><use xlink:href="#i" x="196.49" y="57.7" class="B"/><use xlink:href="#l" x="156.75" class="C"/><use xlink:href="#j" x="196.49" y="57.7" class="B"/><path d="m470.88 443.24h8.33" class="C"/><use xlink:href="#g" x="156.75" y="57.7" class="B"/><use xlink:href="#l" x="136.88" class="C"/><use xlink:href="#q" x="-39.74" y="57.7" class="B"/><path d="m451.01 443.24h8.329" class="C"/><use xlink:href="#i" x="156.75" y="57.7" class="B"/><path d="m189.71 375.9c-12.137 0-9.995 17.371-9.995 17.371h19.99s2.141-17.371-9.995-17.371" class="C"/><g class="B"><path d="M189.71 375.9v-1c-2.417-.004-4.403.651-5.945 1.743-2.32 1.641-3.599 4.16-4.314 6.68-.715 2.527-.88 5.101-.881 7.018 0 1.803.149 3.022.153 3.052a1 1 0 0 0 .992.878h19.99a1 1 0 0 0 .992-.878c.004-.03.153-1.248.153-3.051-.005-2.555-.285-6.279-1.802-9.505-.76-1.61-1.848-3.104-3.393-4.194s-3.528-1.747-5.945-1.743v2c2.068.003 3.592.535 4.792 1.377 1.794 1.26 2.901 3.325 3.543 5.593.642 2.259.806 4.675.805 6.472l-.07 2.049-.048.57-.015.145-.005.043.993.122v-1h-19.99v1l.993-.122-.005-.043a26.16 26.16 0 0 1-.133-2.765c-.006-2.397.299-5.893 1.61-8.65.653-1.382 1.54-2.57 2.737-3.414s2.725-1.374 4.793-1.377v-1"/><use xlink:href="#r"/></g><path d="M182.48 435.51h14.46V410.4h-14.46z" class="C"/><path d="M196.94 435.51v-1h-13.46v-23.103h12.459l.001 24.103h1v-1 1h.999v-25.103c0-.264-.106-.521-.292-.707s-.444-.293-.707-.293h-14.46c-.263 0-.521.106-.707.293s-.293.443-.293.707v25.103c0 .264.107.521.293.707s.444.293.707.293h14.46c.263 0 .52-.106.707-.293s.292-.443.292-.707h-.999" class="B"/><use xlink:href="#S" x="230.88" class="E"/><g class="B"><path d="M571.31 464.42v-1h-9.352v-96.16h8.351l.001 97.16h1v-1 1h.999v-98.16c0-.263-.106-.521-.292-.707a1.01 1.01 0 0 0-.707-.293h-10.352a1.01 1.01 0 0 0-1 1v98.16c0 .264.107.521.293.707s.444.293.707.293h10.352c.263 0 .52-.106.707-.293s.292-.443.292-.707h-.999"/><use xlink:href="#T" x="230.89"/></g><use xlink:href="#U" x="230.88" class="C"/><use xlink:href="#Y" x="356.59" class="B"/><use xlink:href="#U" x="230.88" y="104.23" class="C"/><use xlink:href="#Z" x="356.59" class="B"/><use xlink:href="#S" x="270.8" class="E"/><g class="B"><path d="M611.23 464.42v-1h-9.35v-96.16h8.35v97.16h1v-1 1h1v-98.16c0-.263-.106-.521-.292-.707a1.01 1.01 0 0 0-.708-.293h-10.35c-.264 0-.521.107-.707.293s-.293.444-.293.707v98.16c0 .264.107.521.293.707a1 1 0 0 0 .707.293h10.35c.264 0 .521-.106.708-.293s.292-.443.292-.707h-1"/><use xlink:href="#T" x="270.81"/></g><use xlink:href="#V" x="436.43" class="C"/><path d="M615.04 366.26v-1h-17.085v-4.068h16.085v5.068h1v-1 1h1v-6.068c0-.264-.107-.521-.293-.707s-.444-.293-.707-.293h-18.085c-.263 0-.521.106-.707.293s-.293.443-.293.707v6.068a1.01 1.01 0 0 0 1 1h18.085a1.01 1.01 0 0 0 1-1h-1" class="B"/><use xlink:href="#V" x="436.43" y="104.23" class="C"/><path d="M615.04 470.49v-1h-17.085v-4.069h16.085v5.069h1v-1 1h1v-6.069a1.01 1.01 0 0 0-1-1h-18.085a1.01 1.01 0 0 0-1 1v6.069a1.01 1.01 0 0 0 1 1h18.085a1.01 1.01 0 0 0 1-1h-1" class="B"/><path d="m586.21 375.9c-12.136 0-9.992 17.371-9.992 17.371h19.987s2.143-17.371-9.995-17.371" class="C"/><g class="B"><path d="M586.21 375.9v-1c-2.417-.004-4.402.651-5.944 1.742-2.32 1.641-3.598 4.159-4.313 6.678-.715 2.527-.88 5.101-.881 7.018 0 1.805.15 3.025.153 3.055a1 1 0 0 0 .993.878h19.987a1 1 0 0 0 .992-.878c.004-.03.154-1.249.154-3.053-.005-2.555-.286-6.279-1.803-9.504-.76-1.61-1.848-3.104-3.393-4.193s-3.528-1.747-5.945-1.743v2c2.068.003 3.592.535 4.793 1.377 1.793 1.259 2.9 3.324 3.542 5.591.643 2.259.807 4.675.806 6.472l-.071 2.05-.047.57-.016.146-.005.043.993.122v-1h-19.987v1l.992-.123-.005-.042c-.025-.223-.134-1.286-.133-2.768-.006-2.397.299-5.893 1.61-8.649.653-1.381 1.54-2.568 2.737-3.412s2.723-1.374 4.791-1.377v-1"/><use xlink:href="#r" x="396.51"/></g><path d="M578.99 435.51h14.45V410.4h-14.45z" class="C"/><path d="M593.44 435.51v-1h-13.458v-23.103h12.458v24.103h1v-1 1h1v-25.103a1 1 0 0 0-1-1h-14.458c-.263 0-.521.106-.707.293s-.293.443-.293.707v25.103c0 .264.107.521.293.707s.444.293.707.293h14.458a1 1 0 0 0 1-1h-1" class="B"/><path d="M169.57 356.26h52.35v-36.58h-52.35z" class="G"/><path d="M186.5 346.27h-8.328v-14.814c0-2.299 1.864-4.163 4.165-4.163s4.162 1.864 4.162 4.163h.001v14.814m13.357 0h-8.329v-14.814c0-2.299 1.864-4.163 4.165-4.163s4.162 1.864 4.162 4.163h.002v14.814m13.356 0h-8.329v-14.814c0-2.299 1.864-4.163 4.166-4.163s4.161 1.864 4.161 4.163h.002v14.814" fill="#b29642"/><path d="M171 354.84h49.496v-33.73H171v33.73zm50.923 2.857h-52.351c-.79 0-1.428-.639-1.428-1.429v-36.587a1.43 1.43 0 0 1 1.428-1.428h52.351a1.43 1.43 0 0 1 1.427 1.428v36.587c0 .79-.638 1.429-1.427 1.429z" class="B"/><path d="M227.1 312.86h-62.64l1.69 6.82h59.25l1.7-6.82" class="D"/><path d="M227.1 312.86v-1h-62.647a1 1 0 0 0-.788.384c-.189.242-.257.56-.183.858l1.7 6.82a1 1 0 0 0 .97.758H225.4a1 1 0 0 0 .97-.758l1.7-6.82a1 1 0 0 0-.97-1.242v1l-.97-.242-1.511 6.062h-57.685l-1.202-4.82H227.1v-1l-.97-.242.97.242" class="B"/><path d="M217.1 307.96v-2.74h-3.8v2.74h-9.16v-2.74h-3.81v2.74h-9.16v-2.74h-3.81v2.74h-9.16v-2.74h-3.81v2.74h-4.82v4.9h52.35v-4.9h-4.82" class="F"/><path d="M217.1 307.96h1v-2.734a1.01 1.01 0 0 0-1-1h-3.808a1.01 1.01 0 0 0-1 1v1.734h-7.16v-1.734a1.01 1.01 0 0 0-1-1h-3.808a1.01 1.01 0 0 0-1 1v1.734h-7.161v-1.734c0-.263-.106-.521-.292-.707a1.01 1.01 0 0 0-.707-.293h-3.809a1.01 1.01 0 0 0-1 1v1.734h-7.16v-1.734a1.01 1.01 0 0 0-1-1h-3.808c-.264 0-.521.107-.707.293s-.293.444-.293.707v1.734h-3.819c-.264 0-.521.107-.707.293s-.293.444-.293.707v4.901c0 .263.106.521.293.707s.443.293.707.293h52.351c.264 0 .521-.107.707-.293s.293-.444.293-.707v-4.901c0-.263-.106-.52-.293-.707s-.443-.293-.707-.293H217.1v1h1-1v1h3.819v2.901h-50.351v-2.901h3.819c.263 0 .521-.106.707-.293s.293-.443.293-.707v-1.734h1.808v1.734a1 1 0 0 0 1 1h9.16a1 1 0 0 0 1-1v-1.734h1.809v1.734c0 .264.106.521.292.707s.444.293.708.293h9.16c.263 0 .521-.106.707-.293s.293-.443.293-.707v-1.734h1.808v1.734a1 1 0 0 0 1 1h9.16c.264 0 .521-.106.708-.293s.292-.443.292-.707v-1.734h1.808v1.734c0 .264.107.521.293.707s.444.293.707.293v-1" class="B"/><path d="M553.55 356.26h52.35v-36.58h-52.35z" class="G"/><path d="M570.48 346.27h-8.33v-14.814c0-2.299 1.864-4.163 4.166-4.163s4.163 1.864 4.163 4.163h.001v14.814m13.355 0h-8.328v-14.814c0-2.299 1.864-4.163 4.165-4.163s4.162 1.864 4.162 4.163h.001v14.814m13.357 0h-8.33v-14.814c0-2.299 1.866-4.163 4.165-4.163s4.163 1.864 4.163 4.163h.002v14.814" fill="#b29642"/><path d="M554.98 354.84h49.495v-33.73H554.98v33.73zm50.923 2.857h-52.351a1.43 1.43 0 0 1-1.428-1.429v-36.587a1.43 1.43 0 0 1 1.428-1.428h52.351a1.43 1.43 0 0 1 1.428 1.428v36.587a1.43 1.43 0 0 1-1.428 1.429z" class="B"/><path d="M611.08 312.86h-62.65l1.7 6.82h59.25l1.7-6.82" class="D"/><path d="M611.08 312.86v-1h-62.646a1 1 0 0 0-.971 1.242l1.699 6.82a1 1 0 0 0 .971.758h59.248a1 1 0 0 0 .97-.758l1.699-6.82a1 1 0 0 0-.97-1.242v1l-.97-.242-1.511 6.062h-57.685l-1.201-4.82h61.367v-1l-.97-.242.97.242" class="B"/><path d="M601.08 307.96v-2.74h-3.81v2.74h-9.16v-2.74h-3.8v2.74h-9.16v-2.74h-3.81v2.74h-9.16v-2.74h-3.81v2.74h-4.82v4.9h52.35v-4.9h-4.82" class="F"/><path d="M601.08 307.96h1v-2.734a1.01 1.01 0 0 0-1-1h-3.809a1.01 1.01 0 0 0-1 1v1.734h-7.16v-1.734c0-.263-.106-.521-.293-.707s-.443-.293-.707-.293h-3.808c-.264 0-.521.107-.707.293s-.293.444-.293.707v1.734h-7.161v-1.734c0-.263-.106-.521-.292-.707a1.01 1.01 0 0 0-.707-.293h-3.808a1.01 1.01 0 0 0-1 1v1.734h-7.16v-1.734a1.01 1.01 0 0 0-1-1h-3.809a1.01 1.01 0 0 0-1 1v1.734h-3.818c-.264 0-.521.107-.707.293s-.293.444-.293.707v4.901c0 .263.106.521.293.707s.443.293.707.293h52.351c.264 0 .521-.107.707-.293s.293-.444.293-.707v-4.901c0-.263-.106-.52-.293-.707s-.443-.293-.707-.293h-4.819v1h1-1v1h3.819v2.901h-50.351v-2.901h3.818c.263 0 .521-.106.707-.293s.293-.443.293-.707v-1.734h1.809v1.734a1 1 0 0 0 1 1h9.16c.263 0 .521-.106.707-.293s.293-.443.293-.707v-1.734h1.807l.001 1.734c0 .264.106.521.292.707s.444.293.708.293h9.16c.263 0 .521-.106.707-.293s.293-.443.293-.707v-1.734h1.808v1.734c0 .264.107.521.293.707s.444.293.707.293h9.16c.264 0 .521-.106.708-.293s.292-.443.292-.707v-1.734h1.809v1.734c0 .264.107.521.293.707s.444.293.707.293v-1" class="B"/><path d="M89.484 482.62H61.151" class="F"/><path d="M89.484 481.62H61.151a1 1 0 1 0 0 2h28.333a1 1 0 1 0 0-2" class="B"/><path d="M51.309 482.62H29.273" class="F"/><path d="M51.309 481.62H29.273a1 1 0 1 0 0 2h22.036a1 1 0 1 0 0-2" class="B"/><path d="m599.19 482.62h28.333" class="F"/><path d="M599.19 483.62h28.333a1 1 0 1 0 0-2H599.19a1 1 0 1 0 0 2" class="B"/><path d="m637.36 482.62h22.037" class="F"/><path d="M637.36 483.62h22.037a1 1 0 1 0 0-2H637.36a1 1 0 1 0 0 2" class="B"/><path d="m676.65 482.62h22.037" class="F"/><path d="M676.65 483.62h22.037a1 1 0 1 0 0-2H676.65a1 1 0 1 0 0 2" class="B"/><path d="M380.12 43.03a23.03 23.03 0 0 1 23.025-23.026 23.03 23.03 0 0 1 23.026 23.026c0 12.716-10.309 23.026-23.026 23.026A23.03 23.03 0 0 1 380.12 43.03" class="G"/><path d="M380.12 43.03h1c.001-6.086 2.464-11.586 6.451-15.575a21.95 21.95 0 0 1 31.149 0c3.987 3.989 6.45 9.489 6.451 15.575s-2.464 11.585-6.451 15.574-9.489 6.451-15.575 6.452a21.95 21.95 0 0 1-15.574-6.452c-3.987-3.989-6.45-9.489-6.451-15.574h-2c.001 13.269 10.756 24.025 24.025 24.026s24.025-10.757 24.026-24.026a24.03 24.03 0 0 0-24.026-24.026A24.03 24.03 0 0 0 379.12 43.03h1m1.056-20.248a29.92 29.92 0 0 1 11.989-7.922 1 1 0 0 0 .609-1.276 1 1 0 0 0-1.276-.609c-4.938 1.75-9.315 4.68-12.792 8.451a1 1 0 0 0 1.47 1.356zm19.535-9.531a30.17 30.17 0 0 1 2.434-.098c4.174 0 8.143.855 11.749 2.399a1 1 0 1 0 .787-1.839c-3.848-1.648-8.088-2.56-12.536-2.56-.873 0-1.739.035-2.595.104a1 1 0 1 0 .161 1.994zm20.825 6.232c3.804 2.975 6.868 6.852 8.871 11.306a1 1 0 0 0 1.825-.82c-2.139-4.755-5.407-8.888-9.463-12.062a1 1 0 1 0-1.233 1.576zm11.094 18.694c.257 1.579.391 3.2.391 4.853 0 3.314-.538 6.498-1.533 9.474a1 1 0 1 0 1.897.634c1.062-3.177 1.636-6.577 1.636-10.108 0-1.761-.143-3.49-.418-5.175a1 1 0 0 0-1.148-.826 1 1 0 0 0-.825 1.148zm-4.518 21.267a30.02 30.02 0 0 1-10.55 9.76 1 1 0 0 0 .966 1.751c4.545-2.508 8.41-6.092 11.254-10.41a1 1 0 1 0-1.67-1.101zm-17.732 12.58c-2.316.576-4.738.882-7.235.882a29.95 29.95 0 0 1-7.135-.857 1 1 0 0 0-1.209.733 1 1 0 0 0 .733 1.209c2.44.598 4.99.915 7.611.915 2.66 0 5.246-.326 7.718-.941a1 1 0 1 0-.483-1.941zm-21.563-2.771a30.03 30.03 0 0 1-10.583-9.725 1 1 0 1 0-1.667 1.106 32.04 32.04 0 0 0 11.289 10.373 1 1 0 1 0 .961-1.754zM374.835 52.6a29.86 29.86 0 0 1-1.566-9.57c.001-5.041 1.247-9.784 3.448-13.947a1 1 0 1 0-1.768-.935c-2.349 4.442-3.68 9.51-3.68 14.882 0 3.569.588 7.004 1.671 10.211a1 1 0 1 0 1.895-.641z" class="B"/><path d="M452.576 63.756c1.139-4.217 4.886-7.351 9.408-7.569 2.366-4.122 6.801-6.905 11.893-6.905 7.574 0 13.713 6.14 13.713 13.713 0 .391-.026.775-.059 1.158a6.51 6.51 0 0 1 2.482-.491c3.602 0 6.523 2.92 6.523 6.523s-2.921 6.523-6.523 6.523h-35.692v-.036c-.223.023-.45.036-.68.036-3.602 0-6.524-2.921-6.524-6.523 0-3.239 2.364-5.919 5.459-6.429" class="F"/><path d="M452.576 63.756l.966.26c1.027-3.804 4.41-6.635 8.491-6.83.34-.017.649-.206.819-.501 2.196-3.825 6.304-6.403 11.025-6.403 3.514.001 6.686 1.422 8.99 3.724s3.722 5.475 3.723 8.989c0 .348-.023.703-.055 1.071-.03.346.124.687.404.893s.651.251.973.119c.65-.268 1.356-.416 2.101-.417a5.5 5.5 0 0 1 5.523 5.524c0 1.528-.617 2.903-1.618 3.905a5.5 5.5 0 0 1-3.905 1.618h-35.692v1h1v-.036a1 1 0 0 0-.33-.742c-.209-.189-.491-.281-.772-.253a5.58 5.58 0 0 1-.578.031c-1.528-.001-2.903-.617-3.906-1.618a5.5 5.5 0 0 1-1.618-3.905c-.002-2.741 2.003-5.011 4.622-5.443a1 1 0 0 0 .803-.726l-.966-.26-.162-.987c-3.571.588-6.295 3.678-6.297 7.416.001 4.155 3.369 7.522 7.524 7.523.267 0 .528-.015.782-.041l-.102-.995h-1v.036a1.01 1.01 0 0 0 1 1h35.692c4.155-.001 7.522-3.368 7.523-7.523s-3.368-7.523-7.523-7.523c-1.013-.001-1.981.203-2.862.566l.38.925.997.086c.034-.396.062-.81.062-1.244-.001-8.126-6.586-14.712-14.713-14.713-5.463 0-10.226 2.988-12.76 7.407l.867.498-.048-.999c-4.964.241-9.075 3.677-10.325 8.307l.965.261-.162-.987.162.987M55.253 470.49v-60.086a1 1 0 1 0-2 0v60.086a1 1 0 1 0 2 0m-4.364-129.54h14.423a1 1 0 1 0 0-2H50.889a1 1 0 1 0 0 2" class="B"/></g></svg>