<?xml version="1.0" encoding="UTF-8"?><svg xmlns="http://www.w3.org/2000/svg" xmlns:xlink="http://www.w3.org/1999/xlink" contentScriptType="text/ecmascript" width="75" zoomAndPan="magnify" contentStyleType="text/css" viewBox="0 0 75 52.499999" height="52.499999" preserveAspectRatio="xMidYMid meet" version="1.0"><defs><clipPath id="clip-0"><path d="M 12.667969 1.167969 L 62.441406 1.167969 L 62.441406 50.945312 L 12.667969 50.945312 Z M 12.667969 1.167969 " clip-rule="nonzero"/></clipPath></defs><g clip-path="url(#clip-0)"><path fill="rgb(20.779419%, 71.759033%, 16.079712%)" d="M 58.972656 31.902344 L 61.988281 31.242188 L 62.441406 28.1875 L 59.789062 26.703125 L 57.605469 25.726562 L 57.542969 24.417969 L 59.578125 23.257812 L 62.113281 21.496094 L 61.363281 18.5 L 58.34375 18.144531 L 55.953125 18.078125 L 55.394531 16.894531 L 56.832031 15.042969 L 58.5 12.445312 L 56.660156 9.964844 L 53.734375 10.792969 L 51.5 11.644531 L 50.53125 10.765625 L 51.148438 8.503906 L 51.695312 5.464844 L 49.046875 3.878906 L 46.660156 5.761719 L 44.921875 7.40625 L 43.691406 6.964844 L 43.398438 4.636719 L 42.738281 1.621094 L 39.683594 1.167969 L 38.199219 3.824219 L 37.226562 6.003906 L 35.917969 6.070312 L 34.757812 4.03125 L 32.996094 1.496094 L 30 2.246094 L 29.644531 5.269531 L 29.574219 7.65625 L 28.394531 8.214844 L 26.539062 6.78125 L 23.941406 5.113281 L 21.464844 6.953125 L 22.289062 9.878906 L 23.140625 12.109375 L 22.261719 13.082031 L 20 12.460938 L 16.964844 11.914062 L 15.375 14.5625 L 17.261719 16.953125 L 18.902344 18.6875 L 18.460938 19.921875 L 16.136719 20.214844 L 13.121094 20.871094 L 12.667969 23.925781 L 15.320312 25.410156 L 17.5 26.386719 L 17.566406 27.695312 L 15.53125 28.855469 L 12.996094 30.617188 L 13.746094 33.613281 L 16.765625 33.96875 L 19.15625 34.035156 L 19.714844 35.21875 L 18.277344 37.070312 L 16.609375 39.667969 L 18.449219 42.148438 L 21.375 41.320312 L 23.609375 40.46875 L 24.578125 41.347656 L 23.957031 43.609375 L 23.414062 46.648438 L 26.0625 48.234375 L 28.449219 46.351562 L 30.183594 44.710938 L 31.417969 45.148438 L 31.710938 47.476562 L 32.367188 50.492188 L 35.421875 50.945312 L 36.910156 48.289062 L 37.882812 46.109375 L 39.191406 46.046875 L 40.351562 48.082031 L 42.113281 50.617188 L 45.109375 49.867188 L 45.464844 46.84375 L 45.53125 44.457031 L 46.714844 43.898438 L 48.566406 45.335938 L 51.164062 47 L 53.644531 45.160156 L 52.820312 42.234375 L 51.964844 40.003906 L 52.84375 39.03125 L 55.105469 39.652344 L 58.144531 40.199219 L 59.730469 37.550781 L 57.847656 35.160156 L 56.207031 33.425781 L 56.648438 32.195312 Z M 37.554688 41.019531 C 29.304688 41.019531 22.59375 34.308594 22.59375 26.058594 C 22.59375 17.808594 29.304688 11.09375 37.554688 11.09375 C 45.804688 11.09375 52.515625 17.808594 52.515625 26.058594 C 52.515625 34.308594 45.804688 41.019531 37.554688 41.019531 Z M 37.554688 41.019531 " fill-opacity="1" fill-rule="nonzero"/></g><path fill="rgb(20.779419%, 71.759033%, 16.079712%)" d="M 37.554688 12.089844 C 29.851562 12.089844 23.589844 18.355469 23.589844 26.058594 C 23.589844 33.757812 29.851562 40.023438 37.554688 40.023438 C 45.253906 40.023438 51.519531 33.757812 51.519531 26.058594 C 51.519531 18.355469 45.253906 12.089844 37.554688 12.089844 Z M 37.554688 35.34375 C 32.433594 35.34375 28.265625 31.179688 28.265625 26.058594 C 28.265625 20.9375 32.433594 16.769531 37.554688 16.769531 C 42.675781 16.769531 46.84375 20.9375 46.84375 26.058594 C 46.84375 31.179688 42.675781 35.34375 37.554688 35.34375 Z M 37.554688 35.34375 " fill-opacity="1" fill-rule="nonzero"/></svg>